mononoki-Bold.ufo
<glyph name="ampersand" format="2">
	<advance width="575"/>
	<unicode hex="0026"/>
	<outline>
		<contour>
			<point x="471" y="0" type="curve" smooth="yes"/>
			<point x="503" y="0" type="line" smooth="yes"/>
			<point x="526.923" y="0"/>
			<point x="540.137" y="16.329"/>
			<point x="534.734" y="39.29" type="curve"/>
			<point x="523.133" y="79.934"/>
			<point x="503.407" y="121.998"/>
			<point x="473.404" y="169.686" type="curve"/>
			<point x="488.162" y="201.141"/>
			<point x="500.318" y="236.1"/>
			<point x="509.715" y="274.63" type="curve" smooth="yes"/>
			<point x="515.065" y="296.028"/>
			<point x="504.424" y="312.782"/>
			<point x="482.843" y="316.829" type="curve" smooth="yes"/>
			<point x="449.789" y="322.839" type="line" smooth="yes"/>
			<point x="429.077" y="326.722"/>
			<point x="413.799" y="317.055"/>
			<point x="408.338" y="296.577" type="curve" smooth="yes"/>
			<point x="405.895" y="286.215"/>
			<point x="403.554" y="276.96"/>
			<point x="401.007" y="268.002" type="curve"/>
			<point x="354.591" y="325.143"/>
			<point x="297.052" y="386.09"/>
			<point x="238.071" y="445.071" type="curve" smooth="yes"/>
			<point x="198.221" y="484.921"/>
			<point x="178" y="521.211"/>
			<point x="178" y="552" type="curve" smooth="yes"/>
			<point x="178" y="589.644"/>
			<point x="207.585" y="618"/>
			<point x="247" y="618" type="curve" smooth="yes"/>
			<point x="291.623" y="618"/>
			<point x="325" y="585.445"/>
			<point x="325" y="542" type="curve" smooth="yes"/>
			<point x="325" y="522.226"/>
			<point x="316.74" y="502.882"/>
			<point x="301.929" y="488.071" type="curve" smooth="yes"/>
			<point x="287.653" y="473.795"/>
			<point x="288.498" y="455.36"/>
			<point x="303.929" y="439.929" type="curve" smooth="yes"/>
			<point x="323.929" y="419.929" type="line" smooth="yes"/>
			<point x="339.36" y="404.498"/>
			<point x="357.795" y="403.653"/>
			<point x="372.071" y="417.929" type="curve" smooth="yes"/>
			<point x="406.681" y="452.539"/>
			<point x="426" y="497.665"/>
			<point x="426" y="544" type="curve" smooth="yes"/>
			<point x="426" y="642.565"/>
			<point x="349.375" y="717"/>
			<point x="248" y="717" type="curve" smooth="yes"/>
			<point x="148.499" y="717"/>
			<point x="73" y="645.452"/>
			<point x="73" y="551" type="curve" smooth="yes"/>
			<point x="73" y="499.84"/>
			<point x="99.397" y="445.283"/>
			<point x="149.909" y="391.29" type="curve"/>
			<point x="80.645" y="338.358"/>
			<point x="42" y="266.587"/>
			<point x="42" y="190" type="curve" smooth="yes"/>
			<point x="42" y="70.7"/>
			<point x="117.293" y="-7"/>
			<point x="233" y="-7" type="curve" smooth="yes"/>
			<point x="299.85" y="-7"/>
			<point x="363.368" y="22.97"/>
			<point x="413.079" y="77.541" type="curve"/>
			<point x="421.771" y="60.716"/>
			<point x="428.579" y="44.269"/>
			<point x="433.422" y="28.127" type="curve" smooth="yes"/>
			<point x="433.583" y="27.637" type="line" smooth="yes"/>
			<point x="440.215" y="9.067"/>
			<point x="452.43" y="0"/>
		</contour>
		<contour>
			<point x="233" y="89" type="curve" smooth="yes"/>
			<point x="176.688" y="89"/>
			<point x="146" y="124.413"/>
			<point x="146" y="190" type="curve" smooth="yes"/>
			<point x="146" y="238.647"/>
			<point x="172.63" y="286.376"/>
			<point x="218.809" y="320.84" type="curve"/>
			<point x="273.787" y="263.77"/>
			<point x="318.781" y="212.592"/>
			<point x="354.681" y="166.568" type="curve"/>
			<point x="320.38" y="116.682"/>
			<point x="276.905" y="89"/>
		</contour>
	</outline>
</glyph>
<glyph name="greater" format="2">
	<advance width="575"/>
	<unicode hex="003E"/>
	<outline>
		<contour>
			<point x="464.9" y="326.074" type="curve" smooth="yes"/>
			<point x="140.004" y="569.997" type="line" smooth="yes"/>
			<point x="122.795" y="582.904"/>
			<point x="103.801" y="580.643"/>
			<point x="91.074" y="564.097" type="curve"/>
			<point x="72.29" y="541.369" type="line" smooth="yes"/>
			<point x="58.589" y="523.567"/>
			<point x="60.742" y="505.274"/>
			<point x="77.903" y="492.074" type="curve" smooth="yes"/>
			<point x="399.376" y="250" type="line"/>
			<point x="77.985" y="7.988" type="line" smooth="yes"/>
			<point x="60.742" y="-5.274"/>
			<point x="58.589" y="-23.567"/>
			<point x="72.074" y="-41.097" type="curve" smooth="yes"/>
			<point x="91.29" y="-64.369" type="line" smooth="yes"/>
			<point x="103.775" y="-80.609"/>
			<point x="123.752" y="-82.936"/>
			<point x="141" y="-70" type="curve" smooth="yes"/>
			<point x="465.016" y="174.012" type="line" smooth="yes"/>
			<point x="493.251" y="194.644"/>
			<point x="510" y="222.746"/>
			<point x="510" y="250" type="curve" smooth="yes"/>
			<point x="510" y="277.254"/>
			<point x="493.251" y="305.356"/>
		</contour>
	</outline>
</glyph>
<glyph name="E" format="2">
	<advance width="575"/>
	<unicode hex="0045"/>
	<anchor x="518" y="5" name="ogonek"/>
	<anchor x="288" y="0" name="bottom"/>
	<anchor x="288" y="700" name="top"/>
	<outline>
		<contour>
			<point x="491" y="97" type="curve"/>
			<point x="180" y="97" type="line"/>
			<point x="180" y="326" type="line"/>
			<point x="448" y="326" type="line"/>
			<point x="468.142" y="326"/>
			<point x="483" y="340.858"/>
			<point x="483" y="361" type="curve"/>
			<point x="483" y="388" type="line"/>
			<point x="483" y="408.142"/>
			<point x="468.142" y="423"/>
			<point x="448" y="423" type="curve"/>
			<point x="180" y="423" type="line"/>
			<point x="180" y="624" type="line"/>
			<point x="469" y="624" type="line"/>
			<point x="488.802" y="624"/>
			<point x="504" y="637.509"/>
			<point x="504" y="659" type="curve"/>
			<point x="504" y="685" type="line"/>
			<point x="504" y="706.491"/>
			<point x="488.802" y="720"/>
			<point x="469" y="720" type="curve"/>
			<point x="110" y="720" type="line"/>
			<point x="89.858" y="720"/>
			<point x="75" y="705.142"/>
			<point x="75" y="685" type="curve"/>
			<point x="75" y="35" type="line"/>
			<point x="75" y="14.858"/>
			<point x="89.858" y="0"/>
			<point x="110" y="0" type="curve"/>
			<point x="491" y="0" type="line"/>
			<point x="511.142" y="0"/>
			<point x="526" y="14.858"/>
			<point x="526" y="35" type="curve"/>
			<point x="526" y="62" type="line"/>
			<point x="526" y="82.142"/>
			<point x="511.142" y="97"/>
		</contour>
	</outline>
</glyph>
<glyph name="F" format="2">
	<advance width="575"/>
	<unicode hex="0046"/>
	<outline>
		<contour>
			<point x="491" y="720" type="curve"/>
			<point x="110" y="720" type="line"/>
			<point x="89.858" y="720"/>
			<point x="75" y="705.142"/>
			<point x="75" y="685" type="curve"/>
			<point x="75" y="35" type="line"/>
			<point x="75" y="14.858"/>
			<point x="89.858" y="0"/>
			<point x="110" y="0" type="curve"/>
			<point x="145" y="0" type="line"/>
			<point x="166.491" y="0"/>
			<point x="180" y="15.198"/>
			<point x="180" y="35" type="curve"/>
			<point x="180" y="292" type="line"/>
			<point x="469" y="292" type="line"/>
			<point x="488.802" y="292"/>
			<point x="504" y="305.509"/>
			<point x="504" y="326" type="curve"/>
			<point x="504" y="353" type="line"/>
			<point x="504" y="373.142"/>
			<point x="489.142" y="388"/>
			<point x="469" y="388" type="curve"/>
			<point x="180" y="388" type="line"/>
			<point x="180" y="624" type="line"/>
			<point x="491" y="624" type="line"/>
			<point x="510.802" y="624"/>
			<point x="526" y="637.509"/>
			<point x="526" y="659" type="curve"/>
			<point x="526" y="685" type="line"/>
			<point x="526" y="706.491"/>
			<point x="510.802" y="720"/>
		</contour>
	</outline>
</glyph>
<glyph name="H" format="2">
	<advance width="575"/>
	<unicode hex="0048"/>
	<anchor x="288" y="350" name="center"/>
	<anchor x="288" y="700" name="top"/>
	<anchor x="20" y="720" name="topleft"/>
	<anchor x="288" y="0" name="bottom"/>
	<outline>
		<contour>
			<point x="482" y="720" type="curve"/>
			<point x="447" y="720" type="line"/>
			<point x="427.198" y="720"/>
			<point x="412" y="706.491"/>
			<point x="412" y="685" type="curve"/>
			<point x="412" y="430" type="line"/>
			<point x="163" y="430" type="line"/>
			<point x="163" y="685" type="line"/>
			<point x="163" y="706.142"/>
			<point x="149.142" y="720"/>
			<point x="128" y="720" type="curve"/>
			<point x="93" y="720" type="line"/>
			<point x="72.858" y="720"/>
			<point x="58" y="705.142"/>
			<point x="58" y="685" type="curve"/>
			<point x="58" y="35" type="line"/>
			<point x="58" y="14.858"/>
			<point x="72.858" y="0"/>
			<point x="93" y="0" type="curve"/>
			<point x="128" y="0" type="line"/>
			<point x="149.491" y="0"/>
			<point x="163" y="15.198"/>
			<point x="163" y="35" type="curve"/>
			<point x="163" y="333" type="line"/>
			<point x="412" y="333" type="line"/>
			<point x="412" y="35" type="line"/>
			<point x="412" y="14.858"/>
			<point x="426.858" y="0"/>
			<point x="447" y="0" type="curve"/>
			<point x="482" y="0" type="line"/>
			<point x="503.491" y="0"/>
			<point x="517" y="15.198"/>
			<point x="517" y="35" type="curve"/>
			<point x="517" y="685" type="line"/>
			<point x="517" y="706.491"/>
			<point x="501.802" y="720"/>
		</contour>
	</outline>
</glyph>
<glyph name="I" format="2">
	<advance width="575"/>
	<unicode hex="0049"/>
	<anchor x="518" y="5" name="ogonek"/>
	<anchor x="288" y="700" name="top"/>
	<anchor x="20" y="720" name="topleft"/>
	<anchor x="288" y="0" name="bottom"/>
	<outline>
		<contour>
			<point x="455" y="720" type="curve"/>
			<point x="120" y="720" type="line"/>
			<point x="100.198" y="720"/>
			<point x="85" y="706.491"/>
			<point x="85" y="685" type="curve"/>
			<point x="85" y="659" type="line"/>
			<point x="85" y="638.858"/>
			<point x="99.858" y="624"/>
			<point x="120" y="624" type="curve"/>
			<point x="235" y="624" type="line"/>
			<point x="235" y="97" type="line"/>
			<point x="110" y="97" type="line"/>
			<point x="89.858" y="97"/>
			<point x="75" y="82.142"/>
			<point x="75" y="62" type="curve"/>
			<point x="75" y="35" type="line"/>
			<point x="75" y="14.858"/>
			<point x="89.858" y="0"/>
			<point x="110" y="0" type="curve"/>
			<point x="465" y="0" type="line"/>
			<point x="486.491" y="0"/>
			<point x="500" y="15.198"/>
			<point x="500" y="35" type="curve"/>
			<point x="500" y="62" type="line"/>
			<point x="500" y="81.802"/>
			<point x="486.491" y="97"/>
			<point x="465" y="97" type="curve"/>
			<point x="340" y="97" type="line"/>
			<point x="340" y="624" type="line"/>
			<point x="455" y="624" type="line"/>
			<point x="474.802" y="624"/>
			<point x="490" y="637.509"/>
			<point x="490" y="659" type="curve"/>
			<point x="490" y="685" type="line"/>
			<point x="490" y="706.491"/>
			<point x="474.802" y="720"/>
		</contour>
	</outline>
</glyph>
<glyph name="J" format="2">
	<advance width="575"/>
	<unicode hex="004A"/>
	<anchor x="288" y="700" name="top"/>
	<outline>
		<contour>
			<point x="465" y="720" type="curve"/>
			<point x="185" y="720" type="line"/>
			<point x="164.858" y="720"/>
			<point x="150" y="705.142"/>
			<point x="150" y="685" type="curve"/>
			<point x="150" y="657" type="line"/>
			<point x="150" y="636.858"/>
			<point x="164.858" y="622"/>
			<point x="185" y="622" type="curve"/>
			<point x="394" y="622" type="line"/>
			<point x="394" y="280" type="line"/>
			<point x="394" y="131.335"/>
			<point x="330.89" y="88"/>
			<point x="247" y="88" type="curve"/>
			<point x="206.963" y="88"/>
			<point x="172.679" y="94.666"/>
			<point x="129.417" y="110.398" type="curve"/>
			<point x="110.749" y="117.871"/>
			<point x="92.207" y="109.442"/>
			<point x="84.715" y="90.714" type="curve"/>
			<point x="74.769" y="66.846" type="line"/>
			<point x="67.355" y="48.313"/>
			<point x="73.98" y="28.438"/>
			<point x="93.286" y="20.715" type="curve"/>
			<point x="141.065" y="0.381"/>
			<point x="195.047" y="-10"/>
			<point x="247" y="-10" type="curve"/>
			<point x="375.763" y="-10"/>
			<point x="500" y="64.33"/>
			<point x="500" y="280" type="curve"/>
			<point x="500" y="685" type="line"/>
			<point x="500" y="705.142"/>
			<point x="485.142" y="720"/>
		</contour>
	</outline>
</glyph>
<glyph name="L" format="2">
	<advance width="575"/>
	<unicode hex="004C"/>
	<anchor x="288" y="700" name="top"/>
	<anchor x="288" y="0" name="bottom"/>
	<outline>
		<contour>
			<point x="529" y="97" type="curve"/>
			<point x="180" y="97" type="line"/>
			<point x="180" y="685" type="line"/>
			<point x="180" y="706.142"/>
			<point x="166.142" y="720"/>
			<point x="145" y="720" type="curve"/>
			<point x="110" y="720" type="line"/>
			<point x="89.858" y="720"/>
			<point x="75" y="705.142"/>
			<point x="75" y="685" type="curve"/>
			<point x="75" y="35" type="line"/>
			<point x="75" y="14.858"/>
			<point x="89.858" y="0"/>
			<point x="110" y="0" type="curve"/>
			<point x="529" y="0" type="line"/>
			<point x="549.142" y="0"/>
			<point x="564" y="14.858"/>
			<point x="564" y="35" type="curve"/>
			<point x="564" y="62" type="line"/>
			<point x="564" y="82.142"/>
			<point x="549.142" y="97"/>
		</contour>
	</outline>
</glyph>
<glyph name="U" format="2">
	<advance width="575"/>
	<unicode hex="0055"/>
	<anchor x="518" y="5" name="ogonek"/>
	<anchor x="288" y="700" name="top"/>
	<outline>
		<contour>
			<point x="395" y="685" type="curve" smooth="yes"/>
			<point x="395" y="223" type="line" smooth="yes"/>
			<point x="395" y="119.995"/>
			<point x="367.572" y="86"/>
			<point x="288" y="86" type="curve" smooth="yes"/>
			<point x="207.541" y="86"/>
			<point x="180" y="119.832"/>
			<point x="180" y="223" type="curve" smooth="yes"/>
			<point x="180" y="685" type="line" smooth="yes"/>
			<point x="180" y="706.474"/>
			<point x="166.474" y="720"/>
			<point x="145" y="720" type="curve" smooth="yes"/>
			<point x="110" y="720" type="line" smooth="yes"/>
			<point x="88.526" y="720"/>
			<point x="75" y="706.474"/>
			<point x="75" y="685" type="curve" smooth="yes"/>
			<point x="75" y="223" type="line" smooth="yes"/>
			<point x="75" y="68.629"/>
			<point x="146.708" y="-10"/>
			<point x="288" y="-10" type="curve" smooth="yes"/>
			<point x="428.921" y="-10"/>
			<point x="500" y="68.318"/>
			<point x="500" y="223" type="curve" smooth="yes"/>
			<point x="500" y="685" type="line" smooth="yes"/>
			<point x="500" y="706.474"/>
			<point x="486.474" y="720"/>
			<point x="465" y="720" type="curve" smooth="yes"/>
			<point x="430" y="720" type="line" smooth="yes"/>
			<point x="408.526" y="720"/>
			<point x="395" y="706.474"/>
		</contour>
	</outline>
</glyph>
<glyph name="Y" format="2">
	<advance width="575"/>
	<unicode hex="0059"/>
	<anchor x="288" y="700" name="top"/>
	<outline>
		<contour>
			<point x="532" y="720" type="curve"/>
			<point x="496" y="720" type="line"/>
			<point x="479.639" y="720"/>
			<point x="464.39" y="712.376"/>
			<point x="456.92" y="696.191" type="curve"/>
			<point x="321.056" y="424.472" type="line"/>
			<point x="313.046" y="407.568"/>
			<point x="302.726" y="400"/>
			<point x="288" y="400" type="curve"/>
			<point x="273.274" y="400"/>
			<point x="262.774" y="407.699"/>
			<point x="253.849" y="424.657" type="curve"/>
			<point x="117.944" y="696.472" type="line"/>
			<point x="110.711" y="712.156"/>
			<point x="96.591" y="720"/>
			<point x="80" y="720" type="curve"/>
			<point x="43" y="720" type="line"/>
			<point x="18.648" y="720"/>
			<point x="4.374" y="698.588"/>
			<point x="16.162" y="676.321" type="curve"/>
			<point x="161.05" y="385.54" type="line"/>
			<point x="176.767" y="353.122"/>
			<point x="203.181" y="329.46"/>
			<point x="235" y="317.804" type="curve"/>
			<point x="235" y="35" type="line"/>
			<point x="235" y="14.858"/>
			<point x="249.858" y="0"/>
			<point x="270" y="0" type="curve"/>
			<point x="305" y="0" type="line"/>
			<point x="325.142" y="0"/>
			<point x="340" y="14.858"/>
			<point x="340" y="35" type="curve"/>
			<point x="340" y="317.804" type="line"/>
			<point x="371.819" y="329.46"/>
			<point x="398.233" y="353.122"/>
			<point x="413.998" y="385.637" type="curve"/>
			<point x="558.95" y="676.54" type="line"/>
			<point x="570.44" y="698.236"/>
			<point x="557.744" y="720"/>
		</contour>
	</outline>
</glyph>
<glyph name="backslash" format="2">
	<advance width="575"/>
	<unicode hex="005C"/>
	<outline>
		<contour>
			<point x="541.944" y="-140" type="curve"/>
			<point x="128.944" y="686.472" type="line"/>
			<point x="120.092" y="704.177"/>
			<point x="100.233" y="710.797"/>
			<point x="82.528" y="701.944" type="curve"/>
			<point x="50.528" y="685.944" type="line"/>
			<point x="32.823" y="677.092"/>
			<point x="26.203" y="657.233"/>
			<point x="35.056" y="639.528" type="curve"/>
			<point x="448.056" y="-186" type="line"/>
			<point x="456.908" y="-204"/>
			<point x="476.767" y="-211"/>
			<point x="494.472" y="-202" type="curve"/>
			<point x="526.472" y="-186" type="line"/>
			<point x="544.177" y="-177"/>
			<point x="550.797" y="-157"/>
		</contour>
	</outline>
</glyph>
<glyph name="bracketright" format="2">
	<advance width="575"/>
	<unicode hex="005D"/>
	<outline>
		<contour>
			<point x="400" y="770" type="curve"/>
			<point x="105" y="770" type="line"/>
			<point x="85.198" y="770"/>
			<point x="70" y="756.491"/>
			<point x="70" y="735" type="curve"/>
			<point x="70" y="709" type="line"/>
			<point x="70" y="688.858"/>
			<point x="84.858" y="674"/>
			<point x="105" y="674" type="curve"/>
			<point x="330" y="674" type="line"/>
			<point x="330" y="-82" type="line"/>
			<point x="105" y="-82" type="line"/>
			<point x="85.198" y="-82"/>
			<point x="70" y="-96"/>
			<point x="70" y="-117" type="curve"/>
			<point x="70" y="-143" type="line"/>
			<point x="70" y="-164"/>
			<point x="85.198" y="-178"/>
			<point x="105" y="-178" type="curve"/>
			<point x="400" y="-178" type="line"/>
			<point x="421.491" y="-178"/>
			<point x="435" y="-163"/>
			<point x="435" y="-143" type="curve"/>
			<point x="435" y="735" type="line"/>
			<point x="435" y="756.491"/>
			<point x="419.802" y="770"/>
		</contour>
	</outline>
</glyph>
<glyph name="asciicircum" format="2">
	<advance width="575"/>
	<unicode hex="005E"/>
	<outline>
		<contour>
			<point x="211.103" y="699.241" type="curve" smooth="yes"/>
			<point x="22.043" y="516.184" type="line" smooth="yes"/>
			<point x="6.676" y="500.819"/>
			<point x="8.332" y="479.297"/>
			<point x="23.242" y="465.629" type="curve" smooth="yes"/>
			<point x="46.437" y="445.454" type="line" smooth="yes"/>
			<point x="61.109" y="432"/>
			<point x="81.398" y="432"/>
			<point x="95.371" y="447.243" type="curve" smooth="yes"/>
			<point x="279.165" y="636.025" type="line" smooth="yes"/>
			<point x="282.071" y="638.93"/>
			<point x="285.142" y="642"/>
			<point x="288" y="642" type="curve" smooth="yes"/>
			<point x="290.858" y="642"/>
			<point x="290.608" y="642.251"/>
			<point x="295.318" y="636.599" type="curve"/>
			<point x="479.835" y="447.025" type="line" smooth="yes"/>
			<point x="494.858" y="432"/>
			<point x="514.89" y="432"/>
			<point x="529.757" y="445.629" type="curve" smooth="yes"/>
			<point x="551.726" y="465.601" type="line"/>
			<point x="567.999" y="479.362"/>
			<point x="567.999" y="501.142"/>
			<point x="553.07" y="516.071" type="curve" smooth="yes"/>
			<point x="363.955" y="699.184" type="line" smooth="yes"/>
			<point x="343.886" y="718.25"/>
			<point x="321.983" y="739"/>
			<point x="287.998" y="739" type="curve" smooth="yes"/>
			<point x="254.177" y="739"/>
			<point x="232.214" y="719.349"/>
		</contour>
	</outline>
</glyph>
<glyph name="m" format="2">
	<advance width="575"/>
	<unicode hex="006D"/>
	<anchor x="288" y="570" name="top"/>
	<anchor x="288" y="0" name="bottom"/>
	<outline>
		<contour>
			<point x="388" y="528" type="curve" smooth="yes"/>
			<point x="352" y="528"/>
			<point x="317.551" y="520.481"/>
			<point x="284.951" y="505.512" type="curve"/>
			<point x="261.586" y="520.765"/>
			<point x="230.346" y="528"/>
			<point x="189" y="528" type="curve" smooth="yes"/>
			<point x="158.604" y="528"/>
			<point x="122.415" y="523.967"/>
			<point x="72.211" y="514.839" type="curve" smooth="yes"/>
			<point x="52.385" y="510.875"/>
			<point x="41" y="497.408"/>
			<point x="41" y="478" type="curve" smooth="yes"/>
			<point x="41" y="35" type="line" smooth="yes"/>
			<point x="41" y="13.526"/>
			<point x="54.526" y="0"/>
			<point x="76" y="0" type="curve" smooth="yes"/>
			<point x="111" y="0" type="line" smooth="yes"/>
			<point x="132.978" y="0"/>
			<point x="146" y="13.022"/>
			<point x="146" y="35" type="curve"/>
			<point x="146" y="430.937" type="line"/>
			<point x="158.462" y="432"/>
			<point x="166.726" y="432"/>
			<point x="170" y="432" type="curve" smooth="yes"/>
			<point x="218.941" y="432"/>
			<point x="235" y="415.048"/>
			<point x="235" y="360" type="curve" smooth="yes"/>
			<point x="235" y="35" type="line" smooth="yes"/>
			<point x="235" y="13.526"/>
			<point x="248.526" y="0"/>
			<point x="270" y="0" type="curve" smooth="yes"/>
			<point x="305" y="0" type="line" smooth="yes"/>
			<point x="326.978" y="0"/>
			<point x="340" y="13.022"/>
			<point x="340" y="35" type="curve" smooth="yes"/>
			<point x="340" y="360" type="line" smooth="yes"/>
			<point x="340" y="382.552"/>
			<point x="339.213" y="406.161"/>
			<point x="332.961" y="430.386" type="curve"/>
			<point x="349.483" y="432"/>
			<point x="359.898" y="432"/>
			<point x="364" y="432" type="curve" smooth="yes"/>
			<point x="412.941" y="432"/>
			<point x="429" y="415.048"/>
			<point x="429" y="360" type="curve" smooth="yes"/>
			<point x="429" y="35" type="line" smooth="yes"/>
			<point x="429" y="13.526"/>
			<point x="442.526" y="0"/>
			<point x="464" y="0" type="curve" smooth="yes"/>
			<point x="499" y="0" type="line" smooth="yes"/>
			<point x="520.474" y="0"/>
			<point x="534" y="13.526"/>
			<point x="534" y="35" type="curve" smooth="yes"/>
			<point x="534" y="362" type="line" smooth="yes"/>
			<point x="534" y="477.306"/>
			<point x="489.614" y="528"/>
		</contour>
	</outline>
</glyph>
<glyph name="n" format="2">
	<advance width="575"/>
	<unicode hex="006E"/>
	<anchor x="288" y="570" name="top"/>
	<anchor x="288" y="0" name="bottom"/>
	<outline>
		<contour>
			<point x="75" y="481" type="curve"/>
			<point x="75" y="35" type="line"/>
			<point x="75" y="14.858"/>
			<point x="89.858" y="0"/>
			<point x="110" y="0" type="curve"/>
			<point x="145" y="0" type="line"/>
			<point x="166.491" y="0"/>
			<point x="180" y="15.198"/>
			<point x="180" y="35" type="curve"/>
			<point x="180" y="430.622" type="line"/>
			<point x="220.814" y="433.143"/>
			<point x="255.803" y="434"/>
			<point x="278" y="434" type="curve"/>
			<point x="363.153" y="434"/>
			<point x="395" y="405.466"/>
			<point x="395" y="318" type="curve"/>
			<point x="395" y="35" type="line"/>
			<point x="395" y="14.858"/>
			<point x="409.858" y="0"/>
			<point x="430" y="0" type="curve"/>
			<point x="465" y="0" type="line"/>
			<point x="486.491" y="0"/>
			<point x="500" y="15.198"/>
			<point x="500" y="35" type="curve"/>
			<point x="500" y="318" type="line"/>
			<point x="500" y="468.538"/>
			<point x="429.757" y="530"/>
			<point x="278" y="530" type="curve"/>
			<point x="244.922" y="530"/>
			<point x="180.173" y="528.988"/>
			<point x="106.51" y="517.888" type="curve"/>
			<point x="87.752" y="514.149"/>
			<point x="75" y="499.802"/>
		</contour>
	</outline>
</glyph>
<glyph name="w" format="2">
	<advance width="575"/>
	<unicode hex="0077"/>
	<anchor x="288" y="570" name="top"/>
	<outline>
		<contour>
			<point x="535" y="30" type="curve"/>
			<point x="554.99" y="483.56" type="line"/>
			<point x="555" y="504.475"/>
			<point x="539.475" y="520"/>
			<point x="519" y="520" type="curve" smooth="yes"/>
			<point x="485" y="520" type="line" smooth="yes"/>
			<point x="465.4" y="520"/>
			<point x="451" y="506"/>
			<point x="450.022" y="484.665" type="curve" smooth="yes"/>
			<point x="434" y="178" type="line"/>
			<point x="340" y="366" type="line" smooth="yes"/>
			<point x="333" y="382"/>
			<point x="320" y="390"/>
			<point x="302" y="390" type="curve" smooth="yes"/>
			<point x="274" y="390" type="line" smooth="yes"/>
			<point x="256" y="390"/>
			<point x="243" y="382"/>
			<point x="236" y="366" type="curve" smooth="yes"/>
			<point x="142" y="178" type="line"/>
			<point x="125.984" y="484.572" type="line" smooth="yes"/>
			<point x="125" y="506"/>
			<point x="110.6" y="520"/>
			<point x="91" y="520" type="curve" smooth="yes"/>
			<point x="57" y="520" type="line" smooth="yes"/>
			<point x="35.853" y="520"/>
			<point x="19.673" y="503.573"/>
			<point x="21.022" y="483.335" type="curve" smooth="yes"/>
			<point x="41.01" y="29.56" type="line" smooth="yes"/>
			<point x="42.404" y="7.228"/>
			<point x="55.573" y="-5"/>
			<point x="78" y="-5" type="curve" smooth="yes"/>
			<point x="94" y="-5" type="line" smooth="yes"/>
			<point x="126.007" y="-5"/>
			<point x="148.67" y="8.87"/>
			<point x="162.015" y="36.673" type="curve" smooth="yes"/>
			<point x="288" y="288.639" type="line"/>
			<point x="414.056" y="36.528" type="line" smooth="yes"/>
			<point x="427.33" y="8.87"/>
			<point x="449.993" y="-5"/>
			<point x="482" y="-5" type="curve" smooth="yes"/>
			<point x="498" y="-5" type="line" smooth="yes"/>
			<point x="521.049" y="-5"/>
			<point x="535" y="8.124"/>
		</contour>
	</outline>
</glyph>
<glyph name="z" format="2">
	<advance width="575"/>
	<unicode hex="007A"/>
	<anchor x="288" y="570" name="top"/>
	<outline>
		<contour>
			<point x="465" y="97" type="curve" smooth="yes"/>
			<point x="195.142" y="97" type="line"/>
			<point x="470.071" y="371.929" type="line" smooth="yes"/>
			<point x="489.966" y="391.824"/>
			<point x="499" y="413.381"/>
			<point x="499" y="441" type="curve" smooth="yes"/>
			<point x="499" y="485" type="line" smooth="yes"/>
			<point x="499" y="506.78"/>
			<point x="486.196" y="520"/>
			<point x="465" y="520" type="curve" smooth="yes"/>
			<point x="131" y="520" type="line" smooth="yes"/>
			<point x="109.022" y="520"/>
			<point x="96" y="506.978"/>
			<point x="96" y="485" type="curve" smooth="yes"/>
			<point x="96" y="459" type="line" smooth="yes"/>
			<point x="96" y="437.526"/>
			<point x="109.526" y="424"/>
			<point x="131" y="424" type="curve" smooth="yes"/>
			<point x="379.858" y="424" type="line"/>
			<point x="104.929" y="149.071" type="line" smooth="yes"/>
			<point x="85.034" y="129.176"/>
			<point x="76" y="107.619"/>
			<point x="76" y="80" type="curve" smooth="yes"/>
			<point x="76" y="35" type="line" smooth="yes"/>
			<point x="76" y="13.22"/>
			<point x="88.804" y="0"/>
			<point x="110" y="0" type="curve" smooth="yes"/>
			<point x="465" y="0" type="line" smooth="yes"/>
			<point x="486.978" y="0"/>
			<point x="500" y="13.022"/>
			<point x="500" y="35" type="curve" smooth="yes"/>
			<point x="500" y="62" type="line" smooth="yes"/>
			<point x="500" y="83.978"/>
			<point x="486.978" y="97"/>
		</contour>
	</outline>
</glyph>
<glyph name="braceright" format="2">
	<advance width="575"/>
	<unicode hex="007D"/>
	<outline>
		<contour>
			<point x="235" y="419" type="line" smooth="yes"/>
			<point x="235" y="369.321"/>
			<point x="242.469" y="326.262"/>
			<point x="290.056" y="296.158" type="curve"/>
			<point x="241.504" y="266.122"/>
			<point x="235" y="219.935"/>
			<point x="235" y="174" type="curve" smooth="yes"/>
			<point x="235" y="-3" type="line" smooth="yes"/>
			<point x="235" y="-62.005"/>
			<point x="217.132" y="-82"/>
			<point x="165" y="-82" type="curve" smooth="yes"/>
			<point x="84" y="-82" type="line" smooth="yes"/>
			<point x="62.526" y="-82"/>
			<point x="49" y="-95.526"/>
			<point x="49" y="-117" type="curve" smooth="yes"/>
			<point x="49" y="-143" type="line" smooth="yes"/>
			<point x="49" y="-164.978"/>
			<point x="62.022" y="-178"/>
			<point x="84" y="-178" type="curve" smooth="yes"/>
			<point x="165" y="-178" type="line" smooth="yes"/>
			<point x="288.47" y="-178"/>
			<point x="340" y="-126.47"/>
			<point x="340" y="-3" type="curve" smooth="yes"/>
			<point x="340" y="174" type="line" smooth="yes"/>
			<point x="340" y="229.077"/>
			<point x="357.972" y="248"/>
			<point x="410" y="248" type="curve" smooth="yes"/>
			<point x="490" y="248" type="line" smooth="yes"/>
			<point x="511.474" y="248"/>
			<point x="525" y="261.526"/>
			<point x="525" y="283" type="curve" smooth="yes"/>
			<point x="525" y="309" type="line" smooth="yes"/>
			<point x="525" y="330.978"/>
			<point x="511.978" y="344"/>
			<point x="490" y="344" type="curve" smooth="yes"/>
			<point x="410" y="344" type="line" smooth="yes"/>
			<point x="358.329" y="344"/>
			<point x="340" y="363.544"/>
			<point x="340" y="419" type="curve" smooth="yes"/>
			<point x="340" y="595" type="line" smooth="yes"/>
			<point x="340" y="717.971"/>
			<point x="287.971" y="770"/>
			<point x="165" y="770" type="curve" smooth="yes"/>
			<point x="84" y="770" type="line" smooth="yes"/>
			<point x="62.526" y="770"/>
			<point x="49" y="756.474"/>
			<point x="49" y="735" type="curve" smooth="yes"/>
			<point x="49" y="709" type="line" smooth="yes"/>
			<point x="49" y="687.022"/>
			<point x="62.022" y="674"/>
			<point x="84" y="674" type="curve" smooth="yes"/>
			<point x="165" y="674" type="line" smooth="yes"/>
			<point x="216.708" y="674"/>
			<point x="235" y="653.526"/>
			<point x="235" y="595" type="curve" smooth="yes"/>
		</contour>
	</outline>
</glyph>
<glyph name="currency" format="2">
	<advance width="575"/>
	<unicode hex="00A4"/>
	<outline>
		<contour>
			<point x="466.638" y="358.496" type="curve"/>
			<point x="543.071" y="434.929" type="line"/>
			<point x="558" y="448.601"/>
			<point x="558" y="470.638"/>
			<point x="541.459" y="484.634" type="curve"/>
			<point x="518.743" y="505.385" type="line"/>
			<point x="503.62" y="518"/>
			<point x="483.858" y="518"/>
			<point x="469.929" y="504.071" type="curve"/>
			<point x="395.552" y="429.694" type="line"/>
			<point x="363.499" y="448.762"/>
			<point x="324.694" y="459"/>
			<point x="288" y="459" type="curve"/>
			<point x="250.276" y="459"/>
			<point x="212.271" y="448.726"/>
			<point x="179.556" y="429.656" type="curve"/>
			<point x="106.115" y="504.026" type="line"/>
			<point x="90.89" y="518"/>
			<point x="71.11" y="518"/>
			<point x="56.243" y="504.372" type="curve"/>
			<point x="33.438" y="484.546" type="line"/>
			<point x="18" y="470.399"/>
			<point x="18" y="448.858"/>
			<point x="31.929" y="434.929" type="curve"/>
			<point x="108.37" y="358.488" type="line"/>
			<point x="89.283" y="325.764"/>
			<point x="79" y="287.741"/>
			<point x="79" y="250" type="curve"/>
			<point x="79" y="213.306"/>
			<point x="89.238" y="174.501"/>
			<point x="108.306" y="142.448" type="curve"/>
			<point x="31.929" y="66.071" type="line"/>
			<point x="18" y="50.89"/>
			<point x="18" y="30.601"/>
			<point x="33.243" y="16.628" type="curve"/>
			<point x="56.257" y="-4" type="line"/>
			<point x="71.11" y="-18"/>
			<point x="91.142" y="-18"/>
			<point x="106.071" y="-3" type="curve"/>
			<point x="179.548" y="71.336" type="line"/>
			<point x="212.174" y="52.2"/>
			<point x="250.165" y="41"/>
			<point x="288" y="41" type="curve"/>
			<point x="324.802" y="41"/>
			<point x="363.593" y="52.161"/>
			<point x="395.56" y="71.297" type="curve"/>
			<point x="469.929" y="-3" type="line"/>
			<point x="483.601" y="-18"/>
			<point x="503.89" y="-18"/>
			<point x="518.757" y="-4" type="curve"/>
			<point x="541.743" y="16.615" type="line"/>
			<point x="558" y="30.362"/>
			<point x="558" y="51.142"/>
			<point x="543.071" y="66.071" type="curve"/>
			<point x="466.702" y="142.44" type="line"/>
			<point x="485.839" y="174.407"/>
			<point x="497" y="213.198"/>
			<point x="497" y="250" type="curve"/>
			<point x="497" y="287.852"/>
			<point x="485.79" y="325.86"/>
		</contour>
		<contour>
			<point x="288" y="138" type="curve"/>
			<point x="226.149" y="138"/>
			<point x="175" y="188.257"/>
			<point x="175" y="250" type="curve"/>
			<point x="175" y="311.797"/>
			<point x="226.203" y="363"/>
			<point x="288" y="363" type="curve"/>
			<point x="349.743" y="363"/>
			<point x="400" y="311.851"/>
			<point x="400" y="250" type="curve"/>
			<point x="400" y="188.203"/>
			<point x="349.797" y="138"/>
		</contour>
	</outline>
</glyph>
<glyph name="degree" format="2">
	<advance width="575"/>
	<unicode hex="00B0"/>
	<outline>
		<contour>
			<point x="291" y="730" type="curve" smooth="yes"/>
			<point x="179.403" y="730"/>
			<point x="95" y="647.347"/>
			<point x="95" y="538" type="curve" smooth="yes"/>
			<point x="95" y="428.653"/>
			<point x="179.403" y="346"/>
			<point x="291" y="346" type="curve" smooth="yes"/>
			<point x="398.625" y="346"/>
			<point x="480" y="428.687"/>
			<point x="480" y="538" type="curve" smooth="yes"/>
			<point x="480" y="647.313"/>
			<point x="398.625" y="730"/>
		</contour>
		<contour>
			<point x="288" y="443" type="curve" smooth="yes"/>
			<point x="237.533" y="443"/>
			<point x="200" y="483.414"/>
			<point x="200" y="538" type="curve" smooth="yes"/>
			<point x="200" y="592.586"/>
			<point x="237.533" y="633"/>
			<point x="288" y="633" type="curve" smooth="yes"/>
			<point x="337.672" y="633"/>
			<point x="375" y="592.361"/>
			<point x="375" y="538" type="curve" smooth="yes"/>
			<point x="375" y="483.639"/>
			<point x="337.672" y="443"/>
		</contour>
	</outline>
</glyph>
<glyph name="uni00B5" format="2">
	<advance width="575"/>
	<unicode hex="00B5"/>
	<outline>
		<contour>
			<point x="465" y="520" type="curve"/>
			<point x="430" y="520" type="line"/>
			<point x="409.858" y="520"/>
			<point x="395" y="505.142"/>
			<point x="395" y="485" type="curve"/>
			<point x="395" y="90.377" type="line"/>
			<point x="354.311" y="87.857"/>
			<point x="320.191" y="87"/>
			<point x="298" y="87" type="curve"/>
			<point x="211.846" y="87"/>
			<point x="180" y="115.534"/>
			<point x="180" y="203" type="curve"/>
			<point x="180" y="485" type="line"/>
			<point x="180" y="504.802"/>
			<point x="166.491" y="520"/>
			<point x="145" y="520" type="curve"/>
			<point x="110" y="520" type="line"/>
			<point x="90.198" y="520"/>
			<point x="75" y="506.491"/>
			<point x="75" y="485" type="curve"/>
			<point x="75" y="-203" type="line"/>
			<point x="75" y="-223"/>
			<point x="89.858" y="-238"/>
			<point x="110" y="-238" type="curve"/>
			<point x="145" y="-238" type="line"/>
			<point x="165.142" y="-238"/>
			<point x="180" y="-223"/>
			<point x="180" y="-203" type="curve"/>
			<point x="180" y="14.298" type="line"/>
			<point x="209.661" y="-2"/>
			<point x="249.324" y="-10"/>
			<point x="298" y="-10" type="curve"/>
			<point x="331.079" y="-10"/>
			<point x="394.895" y="-9"/>
			<point x="468.622" y="3.132" type="curve"/>
			<point x="488.35" y="5.591"/>
			<point x="500" y="20.569"/>
			<point x="500" y="40" type="curve"/>
			<point x="500" y="485" type="line"/>
			<point x="500" y="506.142"/>
			<point x="486.142" y="520"/>
		</contour>
	</outline>
</glyph>
<glyph name="paragraph" format="2">
	<advance width="575"/>
	<unicode hex="00B6"/>
	<outline>
		<contour>
			<point x="310" y="720" type="curve" smooth="yes"/>
			<point x="250" y="720" type="line" smooth="yes"/>
			<point x="119.227" y="720"/>
			<point x="49" y="650.492"/>
			<point x="49" y="521" type="curve" smooth="yes"/>
			<point x="49" y="394.849"/>
			<point x="115.65" y="325.626"/>
			<point x="240" y="322.139" type="curve"/>
			<point x="240" y="-65" type="line" smooth="yes"/>
			<point x="240" y="-86.474"/>
			<point x="253.526" y="-100"/>
			<point x="275" y="-100" type="curve" smooth="yes"/>
			<point x="310" y="-100" type="line" smooth="yes"/>
			<point x="331.978" y="-100"/>
			<point x="345" y="-86.978"/>
			<point x="345" y="-65" type="curve" smooth="yes"/>
			<point x="345" y="685" type="line" smooth="yes"/>
			<point x="345" y="707.474"/>
			<point x="332.474" y="720"/>
		</contour>
		<contour>
			<point x="495" y="720" type="curve" smooth="yes"/>
			<point x="460" y="720" type="line" smooth="yes"/>
			<point x="438.526" y="720"/>
			<point x="425" y="706.474"/>
			<point x="425" y="685" type="curve" smooth="yes"/>
			<point x="425" y="-65" type="line" smooth="yes"/>
			<point x="425" y="-86.474"/>
			<point x="438.526" y="-100"/>
			<point x="460" y="-100" type="curve" smooth="yes"/>
			<point x="495" y="-100" type="line" smooth="yes"/>
			<point x="516.978" y="-100"/>
			<point x="530" y="-86.978"/>
			<point x="530" y="-65" type="curve" smooth="yes"/>
			<point x="530" y="685" type="line" smooth="yes"/>
			<point x="530" y="707.474"/>
			<point x="517.474" y="720"/>
		</contour>
	</outline>
</glyph>
<glyph name="periodcentered" format="2">
	<advance width="575"/>
	<unicode hex="00B7"/>
	<outline>
		<contour>
			<point x="340" y="237" type="curve"/>
			<point x="340" y="284" type="line"/>
			<point x="340" y="303.802"/>
			<point x="326.491" y="319"/>
			<point x="305" y="319" type="curve"/>
			<point x="270" y="319" type="line"/>
			<point x="249.858" y="319"/>
			<point x="235" y="304.142"/>
			<point x="235" y="283" type="curve"/>
			<point x="235" y="237" type="line"/>
			<point x="235" y="216.858"/>
			<point x="249.858" y="202"/>
			<point x="270" y="202" type="curve"/>
			<point x="305" y="202" type="line"/>
			<point x="326.491" y="202"/>
			<point x="340" y="217.198"/>
		</contour>
	</outline>
</glyph>
<glyph name="Thorn" format="2">
	<advance width="575"/>
	<unicode hex="00DE"/>
	<outline>
		<contour>
			<point x="180" y="658.096" type="curve"/>
			<point x="180" y="685" type="line"/>
			<point x="180" y="706.474"/>
			<point x="166.474" y="720"/>
			<point x="145" y="720" type="curve" smooth="yes"/>
			<point x="110" y="720" type="line" smooth="yes"/>
			<point x="88.526" y="720"/>
			<point x="75" y="706.474"/>
			<point x="75" y="685" type="curve" smooth="yes"/>
			<point x="75" y="35" type="line" smooth="yes"/>
			<point x="75" y="13.526"/>
			<point x="88.526" y="0"/>
			<point x="110" y="0" type="curve" smooth="yes"/>
			<point x="145" y="0" type="line" smooth="yes"/>
			<point x="166.474" y="0"/>
			<point x="180" y="13.526"/>
			<point x="180" y="35" type="curve" smooth="yes"/>
			<point x="180" y="124.956" type="line"/>
			<point x="213.368" y="121.828"/>
			<point x="240.809" y="121"/>
			<point x="259" y="121" type="curve" smooth="yes"/>
			<point x="430.036" y="121"/>
			<point x="500" y="199.838"/>
			<point x="500" y="392" type="curve" smooth="yes"/>
			<point x="500" y="583.238"/>
			<point x="429.84" y="662"/>
			<point x="259" y="662" type="curve" smooth="yes"/>
			<point x="239.125" y="662"/>
			<point x="211.697" y="661.181"/>
		</contour>
		<contour>
			<point x="180" y="221.255" type="curve"/>
			<point x="180" y="562.694" type="line"/>
			<point x="214.411" y="565"/>
			<point x="242.456" y="565"/>
			<point x="259" y="565" type="curve" smooth="yes"/>
			<point x="362.662" y="565"/>
			<point x="395" y="524.225"/>
			<point x="395" y="392" type="curve" smooth="yes"/>
			<point x="395" y="259.091"/>
			<point x="362.594" y="218"/>
			<point x="259" y="218" type="curve" smooth="yes"/>
			<point x="240.831" y="218"/>
			<point x="212.81" y="218.828"/>
		</contour>
	</outline>
</glyph>
<glyph name="germandbls" format="2">
	<advance width="575"/>
	<unicode hex="00DF"/>
	<outline>
		<contour>
			<point x="197" y="25" type="curve"/>
			<point x="197" y="494" type="line"/>
			<point x="197" y="575.168"/>
			<point x="231.568" y="614"/>
			<point x="294" y="614" type="curve" smooth="yes"/>
			<point x="352.053" y="614"/>
			<point x="383" y="585.523"/>
			<point x="383" y="533" type="curve" smooth="yes"/>
			<point x="383" y="516.205"/>
			<point x="369.769" y="497.682"/>
			<point x="353.68" y="473.548" type="curve" smooth="yes"/>
			<point x="332.737" y="442.633"/>
			<point x="307" y="405.1"/>
			<point x="307" y="363" type="curve" smooth="yes"/>
			<point x="307" y="314.896"/>
			<point x="340.228" y="290.834"/>
			<point x="369.323" y="270.769" type="curve"/>
			<point x="397.159" y="249.882"/>
			<point x="422" y="232.75"/>
			<point x="422" y="197" type="curve" smooth="yes"/>
			<point x="422" y="123.099"/>
			<point x="366.207" y="92.728"/>
			<point x="288.391" y="87.983" type="curve"/>
			<point x="268.677" y="85.539"/>
			<point x="253.999" y="72.492"/>
			<point x="253.999" y="52" type="curve" smooth="yes"/>
			<point x="253.999" y="26" type="line" smooth="yes"/>
			<point x="253.999" y="4.859"/>
			<point x="269.103" y="-10"/>
			<point x="290.586" y="-9" type="curve" smooth="yes"/>
			<point x="418.88" y="-3"/>
			<point x="521.954" y="56.181"/>
			<point x="522.998" y="191.925" type="curve" smooth="yes"/>
			<point x="524.072" y="260.671"/>
			<point x="481.341" y="295.732"/>
			<point x="449.304" y="321.762" type="curve" smooth="yes"/>
			<point x="427.385" y="339.696"/>
			<point x="411.998" y="352.654"/>
			<point x="411.998" y="370.002" type="curve" smooth="yes"/>
			<point x="411.998" y="382.108"/>
			<point x="422.497" y="398.731"/>
			<point x="436.54" y="421.802" type="curve" smooth="yes"/>
			<point x="457.438" y="453.637"/>
			<point x="482.998" y="495.171"/>
			<point x="482.998" y="541" type="curve" smooth="yes"/>
			<point x="482.998" y="648.492"/>
			<point x="413.8" y="710"/>
			<point x="293.998" y="710" type="curve" smooth="yes"/>
			<point x="165.813" y="710"/>
			<point x="91.998" y="635.1"/>
			<point x="91.998" y="494" type="curve" smooth="yes"/>
			<point x="91.998" y="25.001" type="line" smooth="yes"/>
			<point x="91.998" y="4.859"/>
			<point x="106.856" y="-10"/>
			<point x="126.998" y="-10" type="curve" smooth="yes"/>
			<point x="161.998" y="-10" type="line" smooth="yes"/>
			<point x="183.489" y="-10"/>
			<point x="196.998" y="5.199"/>
		</contour>
	</outline>
</glyph>
<glyph name="IJ" format="2">
	<advance width="575"/>
	<unicode hex="0132"/>
	<outline>
		<contour>
			<point x="225" y="720" type="curve"/>
			<point x="90" y="720" type="line"/>
			<point x="70.198" y="720"/>
			<point x="55" y="706.491"/>
			<point x="55" y="685" type="curve"/>
			<point x="55" y="659" type="line"/>
			<point x="55" y="638.858"/>
			<point x="69.858" y="624"/>
			<point x="90" y="624" type="curve"/>
			<point x="105" y="624" type="line"/>
			<point x="105" y="97" type="line"/>
			<point x="80" y="97" type="line"/>
			<point x="59.858" y="97"/>
			<point x="45" y="82.142"/>
			<point x="45" y="62" type="curve"/>
			<point x="45" y="35" type="line"/>
			<point x="45" y="14.858"/>
			<point x="59.858" y="0"/>
			<point x="80" y="0" type="curve"/>
			<point x="235" y="0" type="line"/>
			<point x="256.491" y="0"/>
			<point x="270" y="15.198"/>
			<point x="270" y="35" type="curve"/>
			<point x="270" y="62" type="line"/>
			<point x="270" y="81.802"/>
			<point x="256.491" y="97"/>
			<point x="235" y="97" type="curve"/>
			<point x="210" y="97" type="line"/>
			<point x="210" y="624" type="line"/>
			<point x="225" y="624" type="line"/>
			<point x="244.802" y="624"/>
			<point x="260" y="637.509"/>
			<point x="260" y="659" type="curve"/>
			<point x="260" y="685" type="line"/>
			<point x="260" y="706.491"/>
			<point x="244.802" y="720"/>
		</contour>
		<contour>
			<point x="465" y="720" type="curve"/>
			<point x="352" y="720" type="line"/>
			<point x="331.858" y="720"/>
			<point x="317" y="705.142"/>
			<point x="317" y="685" type="curve"/>
			<point x="317" y="659" type="line"/>
			<point x="317" y="637.509"/>
			<point x="332.198" y="624"/>
			<point x="352" y="624" type="curve"/>
			<point x="395" y="624" type="line"/>
			<point x="395" y="135" type="line"/>
			<point x="395" y="103.29"/>
			<point x="375.432" y="97"/>
			<point x="340" y="97" type="curve"/>
			<point x="319.858" y="97"/>
			<point x="305" y="82.142"/>
			<point x="305" y="62" type="curve"/>
			<point x="305" y="35" type="line"/>
			<point x="305" y="14.509"/>
			<point x="320.198" y="1"/>
			<point x="341" y="1" type="curve"/>
			<point x="439.076" y="1"/>
			<point x="500" y="27.439"/>
			<point x="500" y="135" type="curve"/>
			<point x="500" y="685" type="line"/>
			<point x="500" y="706.142"/>
			<point x="486.142" y="720"/>
		</contour>
	</outline>
</glyph>
<glyph name="OE" format="2">
	<advance width="575"/>
	<unicode hex="0152"/>
	<outline>
		<contour>
			<point x="493" y="97" type="curve"/>
			<point x="383" y="97" type="line"/>
			<point x="383" y="326" type="line"/>
			<point x="475" y="326" type="line"/>
			<point x="495.142" y="326"/>
			<point x="510" y="340.858"/>
			<point x="510" y="361" type="curve"/>
			<point x="510" y="388" type="line"/>
			<point x="510" y="408.142"/>
			<point x="495.142" y="423"/>
			<point x="475" y="423" type="curve"/>
			<point x="383" y="423" type="line"/>
			<point x="383" y="624" type="line"/>
			<point x="482" y="624" type="line"/>
			<point x="501.802" y="624"/>
			<point x="517" y="637.509"/>
			<point x="517" y="659" type="curve"/>
			<point x="517" y="685" type="line"/>
			<point x="517" y="706.491"/>
			<point x="501.802" y="720"/>
			<point x="482" y="720" type="curve"/>
			<point x="288" y="720" type="line"/>
			<point x="140.217" y="720"/>
			<point x="75" y="606.672"/>
			<point x="75" y="457" type="curve"/>
			<point x="75" y="263" type="line"/>
			<point x="75" y="116.467"/>
			<point x="138.042" y="0"/>
			<point x="288" y="0" type="curve"/>
			<point x="493" y="0" type="line"/>
			<point x="514.491" y="0"/>
			<point x="528" y="15.198"/>
			<point x="528" y="35" type="curve"/>
			<point x="528" y="62" type="line"/>
			<point x="528" y="81.802"/>
			<point x="514.491" y="97"/>
		</contour>
		<contour>
			<point x="278" y="623.626" type="curve"/>
			<point x="278" y="97.369" type="line"/>
			<point x="201.557" y="103.158"/>
			<point x="180" y="176.228"/>
			<point x="180" y="263" type="curve"/>
			<point x="180" y="457" type="line"/>
			<point x="180" y="543.788"/>
			<point x="201.58" y="617.761"/>
		</contour>
	</outline>
</glyph>
<glyph name="dotbelowcomb" format="2">
	<advance width="575"/>
	<unicode hex="0323"/>
	<outline>
		<contour>
			<point x="200" y="-81" type="curve" smooth="yes"/>
			<point x="200" y="-169" type="line" smooth="yes"/>
			<point x="200" y="-190.474"/>
			<point x="213.526" y="-204"/>
			<point x="235" y="-204" type="curve" smooth="yes"/>
			<point x="340" y="-204" type="line" smooth="yes"/>
			<point x="361.978" y="-204"/>
			<point x="375" y="-190.978"/>
			<point x="375" y="-169" type="curve" smooth="yes"/>
			<point x="375" y="-81" type="line" smooth="yes"/>
			<point x="375" y="-59.022"/>
			<point x="361.978" y="-46"/>
			<point x="340" y="-46" type="curve" smooth="yes"/>
			<point x="235" y="-46" type="line" smooth="yes"/>
			<point x="213.526" y="-46"/>
			<point x="200" y="-59.526"/>
		</contour>
	</outline>
</glyph>
<glyph name="beta" format="2">
	<advance width="575"/>
	<unicode hex="03B2"/>
	<outline>
		<contour>
			<point x="294" y="720" type="curve" smooth="yes"/>
			<point x="162.603" y="720"/>
			<point x="92" y="644.412"/>
			<point x="92" y="504" type="curve" smooth="yes"/>
			<point x="92" y="-165" type="line" smooth="yes"/>
			<point x="92" y="-186.474"/>
			<point x="105.526" y="-200"/>
			<point x="127" y="-200" type="curve" smooth="yes"/>
			<point x="162" y="-200" type="line" smooth="yes"/>
			<point x="183.978" y="-200"/>
			<point x="197" y="-186.978"/>
			<point x="197" y="-165" type="curve" smooth="yes"/>
			<point x="197" y="10.75" type="line"/>
			<point x="387.042" y="-66.941"/>
			<point x="521.993" y="77.037"/>
			<point x="523" y="201.919" type="curve" smooth="yes"/>
			<point x="524.074" y="270.669"/>
			<point x="481.343" y="305.731"/>
			<point x="449.306" y="331.761" type="curve" smooth="yes"/>
			<point x="420.592" y="355.254"/>
			<point x="412" y="366.119"/>
			<point x="412" y="380" type="curve" smooth="yes"/>
			<point x="412" y="392.106"/>
			<point x="422.499" y="408.73"/>
			<point x="436.542" y="431.801" type="curve" smooth="yes"/>
			<point x="457.44" y="463.635"/>
			<point x="483" y="505.17"/>
			<point x="483" y="551" type="curve" smooth="yes"/>
			<point x="483" y="659.635"/>
			<point x="415.334" y="720"/>
		</contour>
		<contour>
			<point x="294" y="624" type="curve" smooth="yes"/>
			<point x="352.727" y="624"/>
			<point x="383" y="596.329"/>
			<point x="383" y="543" type="curve" smooth="yes"/>
			<point x="383" y="526.205"/>
			<point x="369.769" y="507.681"/>
			<point x="353.679" y="483.547" type="curve" smooth="yes"/>
			<point x="332.737" y="452.632"/>
			<point x="307" y="415.099"/>
			<point x="307" y="373" type="curve" smooth="yes"/>
			<point x="307" y="324.895"/>
			<point x="340.228" y="300.833"/>
			<point x="369.323" y="280.768" type="curve"/>
			<point x="397.159" y="259.881"/>
			<point x="422" y="242.749"/>
			<point x="422" y="207" type="curve" smooth="yes"/>
			<point x="422" y="131.451"/>
			<point x="366.004" y="29.264"/>
			<point x="197" y="102.513" type="curve"/>
			<point x="197" y="504" type="line"/>
			<point x="197" y="584.174"/>
			<point x="229.446" y="624"/>
		</contour>
	</outline>
</glyph>
<glyph name="zeta" format="2">
	<advance width="575"/>
	<unicode hex="03B6"/>
	<outline>
		<contour>
			<point x="180" y="253" type="curve" smooth="yes"/>
			<point x="180" y="386.161"/>
			<point x="282.206" y="528.165"/>
			<point x="439.836" y="615.247" type="curve"/>
			<point x="454.901" y="622.77"/>
			<point x="463" y="635.828"/>
			<point x="463" y="653" type="curve" smooth="yes"/>
			<point x="463" y="685" type="line" smooth="yes"/>
			<point x="463" y="706.474"/>
			<point x="449.474" y="720"/>
			<point x="428" y="720" type="curve" smooth="yes"/>
			<point x="118" y="720" type="line" smooth="yes"/>
			<point x="96.526" y="720"/>
			<point x="83" y="706.474"/>
			<point x="83" y="685" type="curve" smooth="yes"/>
			<point x="83" y="658" type="line" smooth="yes"/>
			<point x="83" y="636.526"/>
			<point x="96.526" y="623"/>
			<point x="118" y="623" type="curve" smooth="yes"/>
			<point x="299.416" y="623" type="line"/>
			<point x="161.179" y="521.017"/>
			<point x="75" y="379.436"/>
			<point x="75" y="251" type="curve" smooth="yes"/>
			<point x="75" y="76.398"/>
			<point x="155.591" y="-15"/>
			<point x="310" y="-15" type="curve" smooth="yes"/>
			<point x="392.076" y="-15"/>
			<point x="415" y="-49.62"/>
			<point x="415" y="-176" type="curve" smooth="yes"/>
			<point x="415" y="-198.262"/>
			<point x="428.319" y="-212"/>
			<point x="450" y="-212" type="curve" smooth="yes"/>
			<point x="485" y="-212" type="line" smooth="yes"/>
			<point x="506.681" y="-212"/>
			<point x="520" y="-198.262"/>
			<point x="520" y="-176" type="curve" smooth="yes"/>
			<point x="520" y="15.042"/>
			<point x="465.746" y="82"/>
			<point x="310" y="82" type="curve" smooth="yes"/>
			<point x="222.965" y="82"/>
			<point x="180" y="138.098"/>
		</contour>
	</outline>
</glyph>
<glyph name="rho" format="2">
	<advance width="575"/>
	<unicode hex="03C1"/>
	<outline>
		<contour>
			<point x="75" y="250" type="curve" smooth="yes"/>
			<point x="75" y="-215" type="line" smooth="yes"/>
			<point x="75" y="-236.474"/>
			<point x="88.526" y="-250"/>
			<point x="110" y="-250" type="curve" smooth="yes"/>
			<point x="145" y="-250" type="line" smooth="yes"/>
			<point x="166.474" y="-250"/>
			<point x="180" y="-236.474"/>
			<point x="180" y="-215" type="curve" smooth="yes"/>
			<point x="180" y="-5.044" type="line"/>
			<point x="213.368" y="-8.172"/>
			<point x="240.809" y="-9"/>
			<point x="259" y="-9" type="curve" smooth="yes"/>
			<point x="430.036" y="-9"/>
			<point x="500" y="69.838"/>
			<point x="500" y="262" type="curve" smooth="yes"/>
			<point x="500" y="451.026"/>
			<point x="437.011" y="532"/>
			<point x="289" y="532" type="curve" smooth="yes"/>
			<point x="133.869" y="532"/>
			<point x="75" y="453.896"/>
		</contour>
		<contour>
			<point x="180" y="91.255" type="curve"/>
			<point x="180" y="250" type="line" smooth="yes"/>
			<point x="180" y="389.947"/>
			<point x="207.613" y="435"/>
			<point x="289" y="435" type="curve" smooth="yes"/>
			<point x="364.54" y="435"/>
			<point x="395" y="386.992"/>
			<point x="395" y="262" type="curve" smooth="yes"/>
			<point x="395" y="129.091"/>
			<point x="362.594" y="88"/>
			<point x="259" y="88" type="curve" smooth="yes"/>
			<point x="240.831" y="88"/>
			<point x="212.81" y="88.828"/>
		</contour>
	</outline>
</glyph>
<glyph name="sigma" format="2">
	<advance width="575"/>
	<unicode hex="03C3"/>
	<outline>
		<contour>
			<point x="473.797" y="423" type="curve"/>
			<point x="505" y="423" type="line" smooth="yes"/>
			<point x="526.474" y="423"/>
			<point x="540" y="436.526"/>
			<point x="540" y="458" type="curve" smooth="yes"/>
			<point x="540" y="485" type="line" smooth="yes"/>
			<point x="540" y="506.474"/>
			<point x="526.474" y="520"/>
			<point x="505" y="520" type="curve" smooth="yes"/>
			<point x="315" y="520" type="line" smooth="yes"/>
			<point x="149.111" y="520"/>
			<point x="55" y="426.99"/>
			<point x="55" y="263" type="curve" smooth="yes"/>
			<point x="55" y="92.331"/>
			<point x="143.57" y="-15"/>
			<point x="285" y="-15" type="curve" smooth="yes"/>
			<point x="439.409" y="-15"/>
			<point x="520" y="76.398"/>
			<point x="520" y="251" type="curve" smooth="yes"/>
			<point x="520" y="305.865"/>
			<point x="503.871" y="365.189"/>
		</contour>
		<contour>
			<point x="315" y="423" type="curve" smooth="yes"/>
			<point x="363.379" y="423" type="line"/>
			<point x="397.765" y="365.695"/>
			<point x="415" y="308.333"/>
			<point x="415" y="253" type="curve" smooth="yes"/>
			<point x="415" y="138.098"/>
			<point x="372.035" y="82"/>
			<point x="285" y="82" type="curve" smooth="yes"/>
			<point x="207.761" y="82"/>
			<point x="160" y="150.564"/>
			<point x="160" y="263" type="curve" smooth="yes"/>
			<point x="160" y="368.262"/>
			<point x="213.068" y="423"/>
		</contour>
	</outline>
</glyph>
<glyph name="uni0413" format="2">
	<advance width="575"/>
	<unicode hex="0413"/>
	<anchor x="288" y="720" name="top"/>
	<anchor x="555" y="0" name="bottomright"/>
	<outline>
		<contour>
			<point x="529" y="623" type="line" smooth="yes"/>
			<point x="550.474" y="623"/>
			<point x="564" y="636.526"/>
			<point x="564" y="658" type="curve" smooth="yes"/>
			<point x="564" y="685" type="line" smooth="yes"/>
			<point x="564" y="706.474"/>
			<point x="550.474" y="720"/>
			<point x="529" y="720" type="curve" smooth="yes"/>
			<point x="110" y="720" type="line" smooth="yes"/>
			<point x="88.526" y="720"/>
			<point x="75" y="706.474"/>
			<point x="75" y="685" type="curve" smooth="yes"/>
			<point x="75" y="35" type="line" smooth="yes"/>
			<point x="75" y="13.526"/>
			<point x="88.526" y="0"/>
			<point x="110" y="0" type="curve" smooth="yes"/>
			<point x="145" y="0" type="line" smooth="yes"/>
			<point x="167.474" y="0"/>
			<point x="180" y="12.526"/>
			<point x="180" y="35" type="curve" smooth="yes"/>
			<point x="180" y="623" type="line"/>
		</contour>
	</outline>
</glyph>
<glyph name="uni041F" format="2">
	<advance width="575"/>
	<unicode hex="041F"/>
	<anchor x="555" y="0" name="bottomright"/>
	<outline>
		<contour>
			<point x="473" y="720" type="curve" smooth="yes"/>
			<point x="103" y="720" type="line" smooth="yes"/>
			<point x="81.526" y="720"/>
			<point x="68" y="706.474"/>
			<point x="68" y="685" type="curve" smooth="yes"/>
			<point x="68" y="35" type="line" smooth="yes"/>
			<point x="68" y="13.526"/>
			<point x="81.526" y="0"/>
			<point x="103" y="0" type="curve" smooth="yes"/>
			<point x="138" y="0" type="line" smooth="yes"/>
			<point x="159.474" y="0"/>
			<point x="173" y="13.526"/>
			<point x="173" y="35" type="curve" smooth="yes"/>
			<point x="173" y="622" type="line"/>
			<point x="403" y="622" type="line"/>
			<point x="403" y="35" type="line" smooth="yes"/>
			<point x="403" y="13.526"/>
			<point x="416.526" y="0"/>
			<point x="438" y="0" type="curve" smooth="yes"/>
			<point x="473" y="0" type="line" smooth="yes"/>
			<point x="494.474" y="0"/>
			<point x="508" y="13.526"/>
			<point x="508" y="35" type="curve" smooth="yes"/>
			<point x="508" y="685" type="line" smooth="yes"/>
			<point x="508" y="706.474"/>
			<point x="494.474" y="720"/>
		</contour>
	</outline>
</glyph>
<glyph name="uni0423" format="2">
	<advance width="575"/>
	<unicode hex="0423"/>
	<anchor x="288" y="720" name="top"/>
	<outline>
		<contour>
			<point x="487" y="720" type="curve" smooth="yes"/>
			<point x="451" y="720" type="line" smooth="yes"/>
			<point x="431.829" y="720"/>
			<point x="418.624" y="710.086"/>
			<point x="413.385" y="691.747" type="curve" smooth="yes"/>
			<point x="311.192" y="283" type="line"/>
			<point x="288" y="283" type="line" smooth="yes"/>
			<point x="271.623" y="283"/>
			<point x="261.864" y="290.436"/>
			<point x="258.785" y="305.06" type="curve"/>
			<point x="161.698" y="691.437" type="line"/>
			<point x="157.822" y="709.557"/>
			<point x="144.5" y="720"/>
			<point x="125" y="720" type="curve" smooth="yes"/>
			<point x="89" y="720" type="line" smooth="yes"/>
			<point x="64.438" y="720"/>
			<point x="51.854" y="704.061"/>
			<point x="57.238" y="679.831" type="curve" smooth="yes"/>
			<point x="155.299" y="287.575" type="line" smooth="yes"/>
			<point x="171.523" y="224.84"/>
			<point x="219.003" y="190"/>
			<point x="288" y="190" type="curve"/>
			<point x="286.853" y="190" type="line"/>
			<point x="263.34" y="107.611"/>
			<point x="244.675" y="98"/>
			<point x="139" y="98" type="curve" smooth="yes"/>
			<point x="87" y="98" type="line" smooth="yes"/>
			<point x="65.526" y="98"/>
			<point x="52" y="84.474"/>
			<point x="52" y="63" type="curve" smooth="yes"/>
			<point x="52" y="35" type="line" smooth="yes"/>
			<point x="52" y="13.526"/>
			<point x="65.526" y="0"/>
			<point x="87" y="0" type="curve" smooth="yes"/>
			<point x="139" y="0" type="line" smooth="yes"/>
			<point x="270.017" y="0"/>
			<point x="350.146" y="16.465"/>
			<point x="393.691" y="187.533" type="curve" smooth="yes"/>
			<point x="517.697" y="679.556" type="line" smooth="yes"/>
			<point x="523.247" y="703.139"/>
			<point x="510.433" y="720"/>
		</contour>
	</outline>
</glyph>
<glyph name="uni0424" format="2">
	<advance width="575"/>
	<unicode hex="0424"/>
	<outline>
		<contour>
			<point x="530" y="360" type="curve" smooth="yes"/>
			<point x="530" y="515.358"/>
			<point x="463.859" y="609"/>
			<point x="340" y="628.668" type="curve"/>
			<point x="340" y="695" type="line"/>
			<point x="340" y="717.474"/>
			<point x="327.474" y="730"/>
			<point x="305" y="730" type="curve" smooth="yes"/>
			<point x="270" y="730" type="line" smooth="yes"/>
			<point x="248.526" y="730"/>
			<point x="235" y="716.474"/>
			<point x="235" y="695" type="curve" smooth="yes"/>
			<point x="235" y="627.503" type="line"/>
			<point x="111.951" y="605.611"/>
			<point x="45" y="511.304"/>
			<point x="45" y="360" type="curve" smooth="yes"/>
			<point x="45" y="208.696"/>
			<point x="111.951" y="114.389"/>
			<point x="235" y="92.497" type="curve"/>
			<point x="235" y="25" type="line" smooth="yes"/>
			<point x="235" y="3.526"/>
			<point x="248.526" y="-10"/>
			<point x="270" y="-10" type="curve" smooth="yes"/>
			<point x="305" y="-10" type="line" smooth="yes"/>
			<point x="326.978" y="-10"/>
			<point x="340" y="3.022"/>
			<point x="340" y="25" type="curve"/>
			<point x="340" y="91.332" type="line"/>
			<point x="463.859" y="111"/>
			<point x="530" y="204.642"/>
		</contour>
		<contour>
			<point x="340" y="193.311" type="curve"/>
			<point x="340" y="526.689" type="line"/>
			<point x="396.462" y="507.164"/>
			<point x="425" y="451.623"/>
			<point x="425" y="360" type="curve" smooth="yes"/>
			<point x="425" y="268.377"/>
			<point x="396.462" y="212.836"/>
		</contour>
		<contour>
			<point x="150" y="360" type="curve" smooth="yes"/>
			<point x="150" y="451.623"/>
			<point x="178.538" y="507.164"/>
			<point x="235" y="526.689" type="curve"/>
			<point x="235" y="193.311" type="line"/>
			<point x="178.538" y="212.836"/>
			<point x="150" y="268.377"/>
		</contour>
	</outline>
</glyph>
<glyph name="uni0426" format="2">
	<advance width="575"/>
	<unicode hex="0426"/>
	<outline>
		<contour>
			<point x="468" y="98" type="line"/>
			<point x="468" y="685" type="line" smooth="yes"/>
			<point x="468" y="706.474"/>
			<point x="454.474" y="720"/>
			<point x="433" y="720" type="curve" smooth="yes"/>
			<point x="398" y="720" type="line" smooth="yes"/>
			<point x="376.526" y="720"/>
			<point x="363" y="706.474"/>
			<point x="363" y="685" type="curve" smooth="yes"/>
			<point x="363" y="98" type="line"/>
			<point x="173" y="98" type="line"/>
			<point x="173" y="685" type="line" smooth="yes"/>
			<point x="173" y="706.474"/>
			<point x="159.474" y="720"/>
			<point x="138" y="720" type="curve" smooth="yes"/>
			<point x="103" y="720" type="line" smooth="yes"/>
			<point x="81.526" y="720"/>
			<point x="68" y="706.474"/>
			<point x="68" y="685" type="curve" smooth="yes"/>
			<point x="68" y="35" type="line" smooth="yes"/>
			<point x="68" y="13.526"/>
			<point x="81.526" y="0"/>
			<point x="103" y="0" type="curve" smooth="yes"/>
			<point x="445" y="0" type="line"/>
			<point x="445" y="-65" type="line" smooth="yes"/>
			<point x="445" y="-86.474"/>
			<point x="458.526" y="-100"/>
			<point x="480" y="-100" type="curve" smooth="yes"/>
			<point x="515" y="-100" type="line" smooth="yes"/>
			<point x="536.474" y="-100"/>
			<point x="550" y="-86.474"/>
			<point x="550" y="-65" type="curve" smooth="yes"/>
			<point x="550" y="63" type="line" smooth="yes"/>
			<point x="550" y="84.474"/>
			<point x="536.474" y="98"/>
			<point x="515" y="98" type="curve" smooth="yes"/>
		</contour>
	</outline>
</glyph>
<glyph name="uni0427" format="2">
	<advance width="575"/>
	<unicode hex="0427"/>
	<anchor x="288" y="720" name="top"/>
	<anchor x="555" y="0" name="bottomright"/>
	<outline>
		<contour>
			<point x="465" y="720" type="curve" smooth="yes"/>
			<point x="430" y="720" type="line" smooth="yes"/>
			<point x="408.022" y="720"/>
			<point x="395" y="706.978"/>
			<point x="395" y="685" type="curve" smooth="yes"/>
			<point x="395" y="339.378" type="line"/>
			<point x="354.186" y="336.857"/>
			<point x="319.197" y="336"/>
			<point x="297" y="336" type="curve" smooth="yes"/>
			<point x="209.586" y="336"/>
			<point x="180" y="365.344"/>
			<point x="180" y="452" type="curve" smooth="yes"/>
			<point x="180" y="685" type="line" smooth="yes"/>
			<point x="180" y="706.474"/>
			<point x="166.474" y="720"/>
			<point x="145" y="720" type="curve" smooth="yes"/>
			<point x="110" y="720" type="line" smooth="yes"/>
			<point x="88.022" y="720"/>
			<point x="75" y="706.978"/>
			<point x="75" y="685" type="curve" smooth="yes"/>
			<point x="75" y="452" type="line" smooth="yes"/>
			<point x="75" y="302.943"/>
			<point x="140.975" y="240"/>
			<point x="297" y="240" type="curve" smooth="yes"/>
			<point x="318.297" y="240"/>
			<point x="353.419" y="240.857"/>
			<point x="395" y="244.137" type="curve"/>
			<point x="395" y="35" type="line" smooth="yes"/>
			<point x="395" y="13.526"/>
			<point x="408.526" y="0"/>
			<point x="430" y="0" type="curve" smooth="yes"/>
			<point x="465" y="0" type="line" smooth="yes"/>
			<point x="486.474" y="0"/>
			<point x="500" y="13.526"/>
			<point x="500" y="35" type="curve" smooth="yes"/>
			<point x="500" y="685" type="line" smooth="yes"/>
			<point x="500" y="706.474"/>
			<point x="486.474" y="720"/>
		</contour>
	</outline>
</glyph>
<glyph name="uni042A" format="2">
	<advance width="575"/>
	<unicode hex="042A"/>
	<outline>
		<contour>
			<point x="265" y="96" type="curve" smooth="yes"/>
			<point x="220" y="96" type="line"/>
			<point x="220" y="344" type="line"/>
			<point x="265" y="344" type="line" smooth="yes"/>
			<point x="374.727" y="344"/>
			<point x="432" y="300.643"/>
			<point x="432" y="220" type="curve" smooth="yes"/>
			<point x="432" y="139.734"/>
			<point x="373.559" y="96"/>
		</contour>
		<contour>
			<point x="265" y="440" type="curve" smooth="yes"/>
			<point x="220.039" y="440" type="line"/>
			<point x="221" y="683.961" type="line" smooth="yes"/>
			<point x="221" y="704.475"/>
			<point x="205.475" y="720"/>
			<point x="185" y="720" type="curve" smooth="yes"/>
			<point x="45" y="720" type="line" smooth="yes"/>
			<point x="23.526" y="720"/>
			<point x="10" y="706.474"/>
			<point x="10" y="685" type="curve" smooth="yes"/>
			<point x="10" y="658" type="line" smooth="yes"/>
			<point x="10" y="636.526"/>
			<point x="23.526" y="623"/>
			<point x="45" y="623" type="curve" smooth="yes"/>
			<point x="115" y="623" type="line"/>
			<point x="115" y="35" type="line" smooth="yes"/>
			<point x="115" y="13.526"/>
			<point x="128.526" y="0"/>
			<point x="150" y="0" type="curve" smooth="yes"/>
			<point x="265" y="0" type="line" smooth="yes"/>
			<point x="434.291" y="0"/>
			<point x="537" y="82.691"/>
			<point x="537" y="220" type="curve" smooth="yes"/>
			<point x="537" y="357.352"/>
			<point x="435.16" y="440"/>
		</contour>
	</outline>
</glyph>
<glyph name="uni042D" format="2">
	<advance width="575"/>
	<unicode hex="042D"/>
	<anchor x="288" y="720" name="top"/>
	<outline>
		<contour>
			<point x="235" y="730" type="curve" smooth="yes"/>
			<point x="190.628" y="730"/>
			<point x="143.799" y="719.705"/>
			<point x="93.252" y="699.271" type="curve" smooth="yes"/>
			<point x="73.577" y="691.401"/>
			<point x="66.512" y="673.794"/>
			<point x="74.715" y="653.286" type="curve" smooth="yes"/>
			<point x="84.769" y="629.154" type="line" smooth="yes"/>
			<point x="92.789" y="609.101"/>
			<point x="109.73" y="601.722"/>
			<point x="129.714" y="609.715" type="curve" smooth="yes"/>
			<point x="166.783" y="624.37"/>
			<point x="202.949" y="632"/>
			<point x="237" y="632" type="curve" smooth="yes"/>
			<point x="338.075" y="632"/>
			<point x="391.638" y="556.071"/>
			<point x="393.924" y="408" type="curve"/>
			<point x="156" y="408" type="line" smooth="yes"/>
			<point x="136.525" y="408"/>
			<point x="121" y="392.475"/>
			<point x="121" y="373" type="curve" smooth="yes"/>
			<point x="121" y="348" type="line" smooth="yes"/>
			<point x="121" y="328.771"/>
			<point x="137.26" y="313"/>
			<point x="157" y="313" type="curve" smooth="yes"/>
			<point x="393.924" y="313" type="line"/>
			<point x="391.63" y="164.651"/>
			<point x="337.807" y="88"/>
			<point x="237" y="88" type="curve" smooth="yes"/>
			<point x="202.949" y="88"/>
			<point x="166.783" y="95.63"/>
			<point x="129.677" y="110.3" type="curve" smooth="yes"/>
			<point x="109.73" y="118.278"/>
			<point x="92.789" y="110.899"/>
			<point x="84.715" y="90.714" type="curve" smooth="yes"/>
			<point x="74.769" y="66.846" type="line" smooth="yes"/>
			<point x="66.512" y="46.206"/>
			<point x="73.577" y="28.599"/>
			<point x="93.286" y="20.715" type="curve" smooth="yes"/>
			<point x="143.799" y="0.295"/>
			<point x="190.628" y="-10"/>
			<point x="235" y="-10" type="curve" smooth="yes"/>
			<point x="401.425" y="-10"/>
			<point x="500" y="112.273"/>
			<point x="500" y="320" type="curve" smooth="yes"/>
			<point x="500" y="400" type="line" smooth="yes"/>
			<point x="500" y="607.727"/>
			<point x="401.425" y="730"/>
		</contour>
	</outline>
</glyph>
<glyph name="uni042E" format="2">
	<advance width="575"/>
	<unicode hex="042E"/>
	<outline>
		<contour>
			<point x="373" y="730" type="curve" smooth="yes"/>
			<point x="258.751" y="730"/>
			<point x="210" y="662.815"/>
			<point x="210" y="507" type="curve" smooth="yes"/>
			<point x="210" y="430" type="line"/>
			<point x="145" y="430" type="line"/>
			<point x="145" y="685" type="line" smooth="yes"/>
			<point x="145" y="707.474"/>
			<point x="132.474" y="720"/>
			<point x="110" y="720" type="curve" smooth="yes"/>
			<point x="75" y="720" type="line" smooth="yes"/>
			<point x="53.526" y="720"/>
			<point x="40" y="706.474"/>
			<point x="40" y="685" type="curve" smooth="yes"/>
			<point x="40" y="35" type="line" smooth="yes"/>
			<point x="40" y="13.526"/>
			<point x="53.526" y="0"/>
			<point x="75" y="0" type="curve" smooth="yes"/>
			<point x="110" y="0" type="line" smooth="yes"/>
			<point x="131.978" y="0"/>
			<point x="145" y="13.022"/>
			<point x="145" y="35" type="curve" smooth="yes"/>
			<point x="145" y="333" type="line"/>
			<point x="210" y="333" type="line"/>
			<point x="210" y="213" type="line" smooth="yes"/>
			<point x="210" y="57.185"/>
			<point x="258.751" y="-10"/>
			<point x="373" y="-10" type="curve" smooth="yes"/>
			<point x="486.916" y="-10"/>
			<point x="535" y="56.69"/>
			<point x="535" y="213" type="curve" smooth="yes"/>
			<point x="535" y="507" type="line" smooth="yes"/>
			<point x="535" y="663.31"/>
			<point x="486.916" y="730"/>
		</contour>
		<contour>
			<point x="430" y="213" type="line" smooth="yes"/>
			<point x="430" y="121.202"/>
			<point x="412.996" y="86"/>
			<point x="373" y="86" type="curve" smooth="yes"/>
			<point x="332.132" y="86"/>
			<point x="315" y="120.891"/>
			<point x="315" y="213" type="curve" smooth="yes"/>
			<point x="315" y="507" type="line" smooth="yes"/>
			<point x="315" y="599.109"/>
			<point x="332.132" y="634"/>
			<point x="373" y="634" type="curve" smooth="yes"/>
			<point x="412.996" y="634"/>
			<point x="430" y="598.798"/>
			<point x="430" y="507" type="curve" smooth="yes"/>
		</contour>
	</outline>
</glyph>
<glyph name="uni0432" format="2">
	<advance width="575"/>
	<unicode hex="0432"/>
	<outline>
		<contour>
			<point x="92" y="424" type="line"/>
			<point x="92" y="35" type="line" smooth="yes"/>
			<point x="92" y="13.526"/>
			<point x="105.526" y="0"/>
			<point x="127" y="0" type="curve" smooth="yes"/>
			<point x="264" y="0" type="line" smooth="yes"/>
			<point x="434.61" y="0"/>
			<point x="523" y="52.711"/>
			<point x="523" y="156" type="curve" smooth="yes"/>
			<point x="523" y="223.199"/>
			<point x="485.249" y="271.059"/>
			<point x="424.685" y="285.482" type="curve"/>
			<point x="457.226" y="301.365"/>
			<point x="483" y="327.169"/>
			<point x="483" y="381" type="curve" smooth="yes"/>
			<point x="483" y="475.84"/>
			<point x="405.872" y="520"/>
			<point x="244" y="520" type="curve" smooth="yes"/>
			<point x="64" y="520" type="line" smooth="yes"/>
			<point x="42.022" y="520"/>
			<point x="29" y="506.978"/>
			<point x="29" y="485" type="curve" smooth="yes"/>
			<point x="29" y="459" type="line" smooth="yes"/>
			<point x="29" y="437.022"/>
			<point x="42.022" y="424"/>
			<point x="64" y="424" type="curve" smooth="yes"/>
		</contour>
		<contour>
			<point x="197" y="323" type="line"/>
			<point x="197" y="424" type="line"/>
			<point x="244" y="424" type="line" smooth="yes"/>
			<point x="358.602" y="424"/>
			<point x="388" y="412.552"/>
			<point x="388" y="371" type="curve" smooth="yes"/>
			<point x="388" y="322.187"/>
			<point x="344.093" y="323"/>
			<point x="244" y="323" type="curve" smooth="yes"/>
		</contour>
		<contour>
			<point x="264" y="97" type="curve" smooth="yes"/>
			<point x="197" y="97" type="line"/>
			<point x="197" y="226" type="line"/>
			<point x="264" y="226" type="line" smooth="yes"/>
			<point x="388.181" y="226"/>
			<point x="427" y="209.923"/>
			<point x="427" y="161" type="curve" smooth="yes"/>
			<point x="427" y="112.482"/>
			<point x="389.107" y="97"/>
		</contour>
	</outline>
</glyph>
<glyph name="uni0434" format="2">
	<advance width="575"/>
	<unicode hex="0434"/>
	<outline>
		<contour>
			<point x="75" y="-125" type="curve" smooth="yes"/>
			<point x="110" y="-125" type="line" smooth="yes"/>
			<point x="131.474" y="-125"/>
			<point x="145" y="-111.474"/>
			<point x="145" y="-90" type="curve" smooth="yes"/>
			<point x="145" y="0" type="line"/>
			<point x="430" y="0" type="line"/>
			<point x="430" y="-90" type="line" smooth="yes"/>
			<point x="430" y="-111.474"/>
			<point x="443.526" y="-125"/>
			<point x="465" y="-125" type="curve" smooth="yes"/>
			<point x="500" y="-125" type="line" smooth="yes"/>
			<point x="521.474" y="-125"/>
			<point x="535" y="-111.474"/>
			<point x="535" y="-90" type="curve" smooth="yes"/>
			<point x="535" y="63" type="line" smooth="yes"/>
			<point x="535" y="84.474"/>
			<point x="521.474" y="98"/>
			<point x="500" y="98" type="curve" smooth="yes"/>
			<point x="469" y="98" type="line"/>
			<point x="469" y="485" type="line" smooth="yes"/>
			<point x="469" y="506.474"/>
			<point x="455.474" y="520"/>
			<point x="434" y="520" type="curve" smooth="yes"/>
			<point x="164" y="520" type="line" smooth="yes"/>
			<point x="142.526" y="520"/>
			<point x="129" y="506.474"/>
			<point x="129" y="485" type="curve" smooth="yes"/>
			<point x="129" y="386.794"/>
			<point x="129" y="216.112"/>
			<point x="86.059" y="98" type="curve"/>
			<point x="75" y="98" type="line" smooth="yes"/>
			<point x="53.526" y="98"/>
			<point x="40" y="84.474"/>
			<point x="40" y="63" type="curve" smooth="yes"/>
			<point x="40" y="-90" type="line" smooth="yes"/>
			<point x="40" y="-111.474"/>
			<point x="53.526" y="-125"/>
		</contour>
		<contour>
			<point x="176.751" y="98" type="line"/>
			<point x="217.581" y="171.069"/>
			<point x="230.621" y="276.328"/>
			<point x="233.8" y="422" type="curve"/>
			<point x="364" y="422" type="line"/>
			<point x="364" y="98" type="line"/>
		</contour>
	</outline>
</glyph>
<glyph name="uni0437" format="2">
	<advance width="575"/>
	<unicode hex="0437"/>
	<anchor x="288" y="520" name="top"/>
	<anchor x="288" y="0" name="bottom"/>
	<outline>
		<contour>
			<point x="105.338" y="472.423" type="curve" smooth="yes"/>
			<point x="113.385" y="444.253" type="line" smooth="yes"/>
			<point x="118.663" y="424.452"/>
			<point x="134.782" y="415.888"/>
			<point x="156.425" y="421.299" type="curve" smooth="yes"/>
			<point x="186.674" y="428.355"/>
			<point x="217.168" y="432"/>
			<point x="248" y="432" type="curve" smooth="yes"/>
			<point x="341.316" y="432"/>
			<point x="384" y="414.255"/>
			<point x="384" y="378" type="curve" smooth="yes"/>
			<point x="384" y="341"/>
			<point x="338.771" y="321"/>
			<point x="250" y="321" type="curve" smooth="yes"/>
			<point x="199" y="321" type="line" smooth="yes"/>
			<point x="177.526" y="321"/>
			<point x="164" y="307.474"/>
			<point x="164" y="286" type="curve" smooth="yes"/>
			<point x="164" y="259" type="line" smooth="yes"/>
			<point x="164" y="237.526"/>
			<point x="177.526" y="224"/>
			<point x="199" y="224" type="curve" smooth="yes"/>
			<point x="250" y="224" type="line" smooth="yes"/>
			<point x="340.552" y="224"/>
			<point x="394" y="199.149"/>
			<point x="394" y="159" type="curve" smooth="yes"/>
			<point x="394" y="116.272"/>
			<point x="335.73" y="88"/>
			<point x="243" y="88" type="curve" smooth="yes"/>
			<point x="209.727" y="88"/>
			<point x="177.071" y="91.552"/>
			<point x="146.272" y="98.738" type="curve" smooth="yes"/>
			<point x="124.782" y="104.112"/>
			<point x="108.663" y="95.548"/>
			<point x="103.338" y="75.577" type="curve" smooth="yes"/>
			<point x="95.385" y="47.747" type="line" smooth="yes"/>
			<point x="89.661" y="26.29"/>
			<point x="99.057" y="9.428"/>
			<point x="119.575" y="4.299" type="curve" smooth="yes"/>
			<point x="157.774" y="-4.993"/>
			<point x="200.356" y="-10"/>
			<point x="243" y="-10" type="curve" smooth="yes"/>
			<point x="398.092" y="-10"/>
			<point x="500" y="49.73"/>
			<point x="500" y="144" type="curve" smooth="yes"/>
			<point x="500" y="202.945"/>
			<point x="459.875" y="254.082"/>
			<point x="401.895" y="275.268" type="curve"/>
			<point x="460.13" y="298.735"/>
			<point x="490" y="337.685"/>
			<point x="490" y="391" type="curve" smooth="yes"/>
			<point x="490" y="482.235"/>
			<point x="405.102" y="530"/>
			<point x="248" y="530" type="curve" smooth="yes"/>
			<point x="207.445" y="530"/>
			<point x="166.84" y="525.018"/>
			<point x="129.575" y="515.701" type="curve" smooth="yes"/>
			<point x="109.057" y="510.572"/>
			<point x="99.661" y="493.71"/>
		</contour>
	</outline>
</glyph>
<glyph name="uni043A" format="2">
	<advance width="575"/>
	<unicode hex="043A"/>
	<anchor x="288" y="520" name="top"/>
	<anchor x="555" y="0" name="bottomright"/>
	<outline>
		<contour>
			<point x="509.071" y="48.071" type="curve" smooth="yes"/>
			<point x="307.071" y="250.071" type="line" smooth="yes"/>
			<point x="300.947" y="256.195"/>
			<point x="294.014" y="263.128"/>
			<point x="280.328" y="270" type="curve"/>
			<point x="294.014" y="276.872"/>
			<point x="300.947" y="283.805"/>
			<point x="307.071" y="289.929" type="curve" smooth="yes"/>
			<point x="489.071" y="471.929" type="line" smooth="yes"/>
			<point x="511.575" y="494.433"/>
			<point x="500.895" y="520"/>
			<point x="469" y="520" type="curve" smooth="yes"/>
			<point x="411" y="520" type="line" smooth="yes"/>
			<point x="395.611" y="520"/>
			<point x="383.991" y="515.134"/>
			<point x="372.929" y="504.071" type="curve" smooth="yes"/>
			<point x="192.929" y="324.071" type="line" smooth="yes"/>
			<point x="188.455" y="319.597"/>
			<point x="183.881" y="315.502"/>
			<point x="180" y="312.263" type="curve"/>
			<point x="180" y="485" type="line" smooth="yes"/>
			<point x="180" y="506.474"/>
			<point x="166.474" y="520"/>
			<point x="145" y="520" type="curve" smooth="yes"/>
			<point x="110" y="520" type="line" smooth="yes"/>
			<point x="88.526" y="520"/>
			<point x="75" y="506.474"/>
			<point x="75" y="485" type="curve" smooth="yes"/>
			<point x="75" y="35" type="line" smooth="yes"/>
			<point x="75" y="13.526"/>
			<point x="88.526" y="0"/>
			<point x="110" y="0" type="curve" smooth="yes"/>
			<point x="145" y="0" type="line" smooth="yes"/>
			<point x="166.474" y="0"/>
			<point x="180" y="13.526"/>
			<point x="180" y="35" type="curve"/>
			<point x="180" y="228.737" type="line"/>
			<point x="183.881" y="225.498"/>
			<point x="188.455" y="221.403"/>
			<point x="192.929" y="216.929" type="curve" smooth="yes"/>
			<point x="392.911" y="15.947" type="line" smooth="yes"/>
			<point x="403.991" y="4.866"/>
			<point x="415.611" y="0"/>
			<point x="431" y="0" type="curve" smooth="yes"/>
			<point x="489" y="0" type="line" smooth="yes"/>
			<point x="520.895" y="0"/>
			<point x="531.575" y="25.567"/>
		</contour>
	</outline>
</glyph>
<glyph name="uni043B" format="2">
	<advance width="575"/>
	<unicode hex="043B"/>
	<outline>
		<contour>
			<point x="500" y="35" type="curve" smooth="yes"/>
			<point x="500" y="485" type="line" smooth="yes"/>
			<point x="500" y="506.474"/>
			<point x="486.474" y="520"/>
			<point x="465" y="520" type="curve" smooth="yes"/>
			<point x="166" y="520" type="line" smooth="yes"/>
			<point x="144.526" y="520"/>
			<point x="131" y="506.474"/>
			<point x="131" y="485" type="curve" smooth="yes"/>
			<point x="131" y="430" type="line" smooth="yes"/>
			<point x="131" y="257.39"/>
			<point x="102.768" y="116.455"/>
			<point x="57.237" y="91.793" type="curve" smooth="yes"/>
			<point x="38.334" y="81.614"/>
			<point x="31" y="71.795"/>
			<point x="31" y="56" type="curve" smooth="yes"/>
			<point x="31" y="17" type="line" smooth="yes"/>
			<point x="31" y="-7.078"/>
			<point x="47.452" y="-21.195"/>
			<point x="69.425" y="-15.701" type="curve" smooth="yes"/>
			<point x="183.766" y="12.647"/>
			<point x="236" y="154.652"/>
			<point x="236" y="430" type="curve"/>
			<point x="236" y="422" type="line"/>
			<point x="395" y="422" type="line"/>
			<point x="395" y="35" type="line" smooth="yes"/>
			<point x="395" y="13.526"/>
			<point x="408.526" y="0"/>
			<point x="430" y="0" type="curve" smooth="yes"/>
			<point x="465" y="0" type="line" smooth="yes"/>
			<point x="486.474" y="0"/>
			<point x="500" y="13.526"/>
		</contour>
	</outline>
</glyph>
<glyph name="uni043D" format="2">
	<advance width="575"/>
	<unicode hex="043D"/>
	<anchor x="555" y="0" name="bottomright"/>
	<outline>
		<contour>
			<point x="482" y="520" type="curve" smooth="yes"/>
			<point x="447" y="520" type="line" smooth="yes"/>
			<point x="425.022" y="520"/>
			<point x="412" y="506.978"/>
			<point x="412" y="485" type="curve" smooth="yes"/>
			<point x="412" y="330" type="line"/>
			<point x="163" y="330" type="line"/>
			<point x="163" y="485" type="line" smooth="yes"/>
			<point x="163" y="507.474"/>
			<point x="150.474" y="520"/>
			<point x="128" y="520" type="curve" smooth="yes"/>
			<point x="93" y="520" type="line" smooth="yes"/>
			<point x="71.526" y="520"/>
			<point x="58" y="506.474"/>
			<point x="58" y="485" type="curve" smooth="yes"/>
			<point x="58" y="35" type="line" smooth="yes"/>
			<point x="58" y="13.526"/>
			<point x="71.526" y="0"/>
			<point x="93" y="0" type="curve" smooth="yes"/>
			<point x="128" y="0" type="line" smooth="yes"/>
			<point x="149.978" y="0"/>
			<point x="163" y="13.022"/>
			<point x="163" y="35" type="curve" smooth="yes"/>
			<point x="163" y="233" type="line"/>
			<point x="412" y="233" type="line"/>
			<point x="412" y="35" type="line" smooth="yes"/>
			<point x="412" y="13.526"/>
			<point x="425.526" y="0"/>
			<point x="447" y="0" type="curve" smooth="yes"/>
			<point x="482" y="0" type="line" smooth="yes"/>
			<point x="503.978" y="0"/>
			<point x="517" y="13.022"/>
			<point x="517" y="35" type="curve" smooth="yes"/>
			<point x="517" y="485" type="line" smooth="yes"/>
			<point x="517" y="506.978"/>
			<point x="503.978" y="520"/>
		</contour>
	</outline>
</glyph>
<glyph name="uni043F" format="2">
	<advance width="575"/>
	<unicode hex="043F"/>
	<anchor x="555" y="0" name="bottomright"/>
	<outline>
		<contour>
			<point x="473" y="520" type="curve" smooth="yes"/>
			<point x="103" y="520" type="line" smooth="yes"/>
			<point x="81.526" y="520"/>
			<point x="68" y="506.474"/>
			<point x="68" y="485" type="curve" smooth="yes"/>
			<point x="68" y="35" type="line" smooth="yes"/>
			<point x="68" y="13.526"/>
			<point x="81.526" y="0"/>
			<point x="103" y="0" type="curve" smooth="yes"/>
			<point x="138" y="0" type="line" smooth="yes"/>
			<point x="159.474" y="0"/>
			<point x="173" y="13.526"/>
			<point x="173" y="35" type="curve" smooth="yes"/>
			<point x="173" y="422" type="line"/>
			<point x="403" y="422" type="line"/>
			<point x="403" y="35" type="line" smooth="yes"/>
			<point x="403" y="13.526"/>
			<point x="416.526" y="0"/>
			<point x="438" y="0" type="curve" smooth="yes"/>
			<point x="473" y="0" type="line" smooth="yes"/>
			<point x="494.474" y="0"/>
			<point x="508" y="13.526"/>
			<point x="508" y="35" type="curve" smooth="yes"/>
			<point x="508" y="485" type="line" smooth="yes"/>
			<point x="508" y="506.474"/>
			<point x="494.474" y="520"/>
		</contour>
	</outline>
</glyph>
<glyph name="uni0442" format="2">
	<advance width="575"/>
	<unicode hex="0442"/>
	<outline>
		<contour>
			<point x="564" y="459" type="curve" smooth="yes"/>
			<point x="564" y="485" type="line" smooth="yes"/>
			<point x="564" y="506.978"/>
			<point x="550.978" y="520"/>
			<point x="529" y="520" type="curve" smooth="yes"/>
			<point x="47" y="520" type="line" smooth="yes"/>
			<point x="25.022" y="520"/>
			<point x="12" y="506.978"/>
			<point x="12" y="485" type="curve" smooth="yes"/>
			<point x="12" y="459" type="line" smooth="yes"/>
			<point x="12" y="437.22"/>
			<point x="24.804" y="424"/>
			<point x="46" y="424" type="curve" smooth="yes"/>
			<point x="235" y="424" type="line"/>
			<point x="235" y="35" type="line" smooth="yes"/>
			<point x="235" y="13.526"/>
			<point x="248.526" y="0"/>
			<point x="270" y="0" type="curve" smooth="yes"/>
			<point x="305" y="0" type="line" smooth="yes"/>
			<point x="326.978" y="0"/>
			<point x="340" y="13.022"/>
			<point x="340" y="35" type="curve" smooth="yes"/>
			<point x="340" y="424" type="line"/>
			<point x="529" y="424" type="line" smooth="yes"/>
			<point x="550.474" y="424"/>
			<point x="564" y="437.526"/>
		</contour>
	</outline>
</glyph>
<glyph name="uni0447" format="2">
	<advance width="575"/>
	<unicode hex="0447"/>
	<anchor x="288" y="520" name="top"/>
	<anchor x="555" y="0" name="bottomright"/>
	<outline>
		<contour>
			<point x="465" y="520" type="curve" smooth="yes"/>
			<point x="430" y="520" type="line" smooth="yes"/>
			<point x="408.022" y="520"/>
			<point x="395" y="506.978"/>
			<point x="395" y="485" type="curve" smooth="yes"/>
			<point x="395" y="239.378" type="line"/>
			<point x="354.186" y="236.857"/>
			<point x="319.197" y="236"/>
			<point x="297" y="236" type="curve" smooth="yes"/>
			<point x="209.586" y="236"/>
			<point x="180" y="265.344"/>
			<point x="180" y="352" type="curve" smooth="yes"/>
			<point x="180" y="485" type="line" smooth="yes"/>
			<point x="180" y="506.474"/>
			<point x="166.474" y="520"/>
			<point x="145" y="520" type="curve" smooth="yes"/>
			<point x="110" y="520" type="line" smooth="yes"/>
			<point x="88.022" y="520"/>
			<point x="75" y="506.978"/>
			<point x="75" y="485" type="curve" smooth="yes"/>
			<point x="75" y="352" type="line" smooth="yes"/>
			<point x="75" y="202.943"/>
			<point x="140.975" y="140"/>
			<point x="297" y="140" type="curve" smooth="yes"/>
			<point x="318.297" y="140"/>
			<point x="353.419" y="140.857"/>
			<point x="395" y="144.137" type="curve"/>
			<point x="395" y="35" type="line" smooth="yes"/>
			<point x="395" y="13.526"/>
			<point x="408.526" y="0"/>
			<point x="430" y="0" type="curve" smooth="yes"/>
			<point x="465" y="0" type="line" smooth="yes"/>
			<point x="486.474" y="0"/>
			<point x="500" y="13.526"/>
			<point x="500" y="35" type="curve" smooth="yes"/>
			<point x="500" y="485" type="line" smooth="yes"/>
			<point x="500" y="506.474"/>
			<point x="486.474" y="520"/>
		</contour>
	</outline>
</glyph>
<glyph name="uni044E" format="2">
	<advance width="575"/>
	<unicode hex="044E"/>
	<anchor x="288" y="520" name="top"/>
	<outline>
		<contour>
			<point x="430" y="213" type="line" smooth="yes"/>
			<point x="430" y="121.202"/>
			<point x="412.996" y="86"/>
			<point x="373" y="86" type="curve" smooth="yes"/>
			<point x="332.132" y="86"/>
			<point x="315" y="120.891"/>
			<point x="315" y="213" type="curve" smooth="yes"/>
			<point x="315" y="307" type="line" smooth="yes"/>
			<point x="315" y="399.109"/>
			<point x="332.132" y="434"/>
			<point x="373" y="434" type="curve" smooth="yes"/>
			<point x="412.996" y="434"/>
			<point x="430" y="398.798"/>
			<point x="430" y="307" type="curve" smooth="yes"/>
		</contour>
		<contour>
			<point x="373" y="530" type="curve" smooth="yes"/>
			<point x="261.751" y="530"/>
			<point x="212.203" y="465.992"/>
			<point x="210.072" y="320" type="curve"/>
			<point x="145" y="320" type="line"/>
			<point x="145" y="485" type="line" smooth="yes"/>
			<point x="145" y="507.474"/>
			<point x="132.474" y="520"/>
			<point x="110" y="520" type="curve" smooth="yes"/>
			<point x="75" y="520" type="line" smooth="yes"/>
			<point x="53.526" y="520"/>
			<point x="40" y="506.474"/>
			<point x="40" y="485" type="curve" smooth="yes"/>
			<point x="40" y="35" type="line" smooth="yes"/>
			<point x="40" y="13.526"/>
			<point x="53.526" y="0"/>
			<point x="75" y="0" type="curve" smooth="yes"/>
			<point x="110" y="0" type="line" smooth="yes"/>
			<point x="131.978" y="0"/>
			<point x="145" y="13.022"/>
			<point x="145" y="35" type="curve" smooth="yes"/>
			<point x="145" y="223" type="line"/>
			<point x="210" y="223" type="line"/>
			<point x="210" y="213" type="line" smooth="yes"/>
			<point x="210" y="57.185"/>
			<point x="258.751" y="-10"/>
			<point x="373" y="-10" type="curve" smooth="yes"/>
			<point x="486.916" y="-10"/>
			<point x="535" y="56.69"/>
			<point x="535" y="213" type="curve" smooth="yes"/>
			<point x="535" y="307" type="line" smooth="yes"/>
			<point x="535" y="463.31"/>
			<point x="486.916" y="530"/>
		</contour>
	</outline>
</glyph>
<glyph name="uni044F" format="2">
	<advance width="575"/>
	<unicode hex="044F"/>
	<outline>
		<contour>
			<point x="475" y="520" type="curve" smooth="yes"/>
			<point x="267" y="520" type="line" smooth="yes"/>
			<point x="153.867" y="520"/>
			<point x="75" y="457.005"/>
			<point x="75" y="366" type="curve" smooth="yes"/>
			<point x="75" y="303.772"/>
			<point x="111.184" y="254.359"/>
			<point x="172.742" y="231.295" type="curve"/>
			<point x="83.135" y="59.627" type="line" smooth="yes"/>
			<point x="68.78" y="30.92"/>
			<point x="86.79" y="0"/>
			<point x="119" y="0" type="curve" smooth="yes"/>
			<point x="150" y="0" type="line" smooth="yes"/>
			<point x="161.201" y="0"/>
			<point x="172.938" y="6.986"/>
			<point x="178.682" y="17.039" type="curve" smooth="yes"/>
			<point x="178.944" y="17.528" type="line"/>
			<point x="276.18" y="212" type="line"/>
			<point x="405" y="212" type="line"/>
			<point x="405" y="35" type="line" smooth="yes"/>
			<point x="405" y="15.525"/>
			<point x="420.525" y="0"/>
			<point x="440" y="0" type="curve" smooth="yes"/>
			<point x="475" y="0" type="line" smooth="yes"/>
			<point x="494.475" y="0"/>
			<point x="510" y="15.525"/>
			<point x="510" y="35" type="curve" smooth="yes"/>
			<point x="510" y="485" type="line" smooth="yes"/>
			<point x="510" y="506.978"/>
			<point x="496.978" y="520"/>
		</contour>
		<contour>
			<point x="405" y="309" type="line"/>
			<point x="317" y="309" type="line" smooth="yes"/>
			<point x="223.887" y="309"/>
			<point x="180" y="328.222"/>
			<point x="180" y="366" type="curve" smooth="yes"/>
			<point x="180" y="399.604"/>
			<point x="215.273" y="424"/>
			<point x="267" y="424" type="curve" smooth="yes"/>
			<point x="405" y="424" type="line"/>
		</contour>
	</outline>
</glyph>
<glyph name="guilsinglleft" format="2">
	<advance width="575"/>
	<unicode hex="2039"/>
	<outline>
		<contour>
			<point x="425.757" y="80.371" type="curve"/>
			<point x="246.142" y="260" type="line"/>
			<point x="426.071" y="439.929" type="line"/>
			<point x="441" y="454.858"/>
			<point x="441" y="476.638"/>
			<point x="424.459" y="490.634" type="curve"/>
			<point x="401.562" y="510.546" type="line"/>
			<point x="386.89" y="524"/>
			<point x="366.601" y="524"/>
			<point x="352.628" y="508.757" type="curve"/>
			<point x="175.949" y="333.091" type="line"/>
			<point x="156.537" y="313.679"/>
			<point x="138" y="290.508"/>
			<point x="138" y="260" type="curve"/>
			<point x="138" y="229.35"/>
			<point x="156.626" y="207.231"/>
			<point x="175.929" y="187.929" type="curve"/>
			<point x="352.929" y="10.929" type="line"/>
			<point x="366.858" y="-3"/>
			<point x="386.62" y="-3"/>
			<point x="401.402" y="9.318" type="curve"/>
			<point x="424.743" y="30.615" type="line"/>
			<point x="441" y="44.362"/>
			<point x="441" y="66.399"/>
		</contour>
	</outline>
</glyph>
<glyph name="uni215F" format="2">
	<advance width="575"/>
	<unicode hex="215F"/>
	<outline>
		<contour>
			<point x="233" y="459" type="curve"/>
			<point x="203" y="459" type="line"/>
			<point x="203" y="738" type="line"/>
			<point x="203" y="754.142"/>
			<point x="187.142" y="770"/>
			<point x="169" y="770" type="curve"/>
			<point x="159" y="770" type="line"/>
			<point x="143.569" y="770"/>
			<point x="129.881" y="759.354"/>
			<point x="124.862" y="748.061" type="curve"/>
			<point x="114.542" y="723.985"/>
			<point x="100.301" y="719"/>
			<point x="55" y="719" type="curve"/>
			<point x="36.316" y="719"/>
			<point x="21" y="700.62"/>
			<point x="21" y="686" type="curve"/>
			<point x="21" y="673" type="line"/>
			<point x="21" y="658.38"/>
			<point x="36.316" y="640"/>
			<point x="55" y="640" type="curve"/>
			<point x="117" y="640" type="line"/>
			<point x="117" y="459" type="line"/>
			<point x="55" y="459" type="line"/>
			<point x="36.316" y="459"/>
			<point x="21" y="440.62"/>
			<point x="21" y="426" type="curve"/>
			<point x="21" y="413" type="line"/>
			<point x="21" y="398.38"/>
			<point x="36.316" y="380"/>
			<point x="55" y="380" type="curve"/>
			<point x="233" y="380" type="line"/>
			<point x="251.684" y="380"/>
			<point x="267" y="398.38"/>
			<point x="267" y="413" type="curve"/>
			<point x="267" y="426" type="line"/>
			<point x="267" y="440.62"/>
			<point x="251.684" y="459"/>
		</contour>
		<contour>
			<point x="428.929" y="594.071" type="curve"/>
			<point x="74.929" y="240.071" type="line"/>
			<point x="61" y="226.142"/>
			<point x="61" y="206.858"/>
			<point x="74.929" y="192.929" type="curve"/>
			<point x="97.929" y="169.929" type="line"/>
			<point x="111.858" y="156"/>
			<point x="131.142" y="156"/>
			<point x="145.071" y="169.929" type="curve"/>
			<point x="499.071" y="523.929" type="line"/>
			<point x="513" y="537.858"/>
			<point x="513" y="557.142"/>
			<point x="499.071" y="571.071" type="curve"/>
			<point x="476.071" y="594.071" type="line"/>
			<point x="463.424" y="608"/>
			<point x="442.858" y="608"/>
		</contour>
	</outline>
</glyph>
<glyph name="emptyset" format="2">
	<advance width="575"/>
	<unicode hex="2205"/>
	<outline>
		<contour>
			<point x="487.609" y="395.467" type="curve"/>
			<point x="566.071" y="473.929" type="line"/>
			<point x="581" y="488.858"/>
			<point x="581" y="509.399"/>
			<point x="565.757" y="523.372" type="curve"/>
			<point x="538.071" y="551.071" type="line"/>
			<point x="524.399" y="566"/>
			<point x="503.858" y="566"/>
			<point x="488.929" y="551.071" type="curve"/>
			<point x="411.793" y="473.935" type="line"/>
			<point x="376.713" y="496.872"/>
			<point x="333.503" y="510"/>
			<point x="288" y="510" type="curve"/>
			<point x="158.828" y="510"/>
			<point x="55" y="405.112"/>
			<point x="55" y="275" type="curve"/>
			<point x="55" y="229.578"/>
			<point x="67.181" y="186.422"/>
			<point x="89.179" y="151.321" type="curve"/>
			<point x="14.929" y="77.071" type="line"/>
			<point x="1" y="63.142"/>
			<point x="1" y="43.11"/>
			<point x="14.629" y="28.243" type="curve"/>
			<point x="42.929" y="0" type="line"/>
			<point x="57.858" y="-15"/>
			<point x="78.399" y="-15"/>
			<point x="92.371" y="0.243" type="curve"/>
			<point x="166.316" y="74.174" type="line"/>
			<point x="201.277" y="52.195"/>
			<point x="243.489" y="40"/>
			<point x="288" y="40" type="curve"/>
			<point x="416.172" y="40"/>
			<point x="520" y="144.888"/>
			<point x="520" y="275" type="curve"/>
			<point x="520" y="318.611"/>
			<point x="507.837" y="360.628"/>
		</contour>
		<contour>
			<point x="333.853" y="395.995" type="curve"/>
			<point x="167.1" y="229.242" type="line"/>
			<point x="161.618" y="243.349"/>
			<point x="159" y="258.232"/>
			<point x="159" y="275" type="curve"/>
			<point x="159" y="346.805"/>
			<point x="217.196" y="405"/>
			<point x="288" y="405" type="curve"/>
			<point x="304.674" y="405"/>
			<point x="319.596" y="401.823"/>
		</contour>
		<contour>
			<point x="244.616" y="152.474" type="curve"/>
			<point x="409.24" y="317.098" type="line"/>
			<point x="413.57" y="304.04"/>
			<point x="416" y="290.279"/>
			<point x="416" y="275" type="curve"/>
			<point x="416" y="203.195"/>
			<point x="358.804" y="146"/>
			<point x="288" y="146" type="curve"/>
			<point x="272.288" y="146"/>
			<point x="257.881" y="147.985"/>
		</contour>
	</outline>
</glyph>
<glyph name="infinity" format="2">
	<advance width="575"/>
	<unicode hex="221E"/>
	<outline>
		<contour>
			<point x="281.724" y="334.007" type="curve"/>
			<point x="246.406" y="386.209"/>
			<point x="203.974" y="413"/>
			<point x="156" y="413" type="curve" smooth="yes"/>
			<point x="82.916" y="413"/>
			<point x="33" y="346.002"/>
			<point x="33" y="249" type="curve" smooth="yes"/>
			<point x="33" y="150.834"/>
			<point x="84.091" y="85"/>
			<point x="161" y="85" type="curve" smooth="yes"/>
			<point x="214.74" y="85"/>
			<point x="253.58" y="110.562"/>
			<point x="284.811" y="166.831" type="curve"/>
			<point x="322.614" y="109.393"/>
			<point x="365.77" y="80"/>
			<point x="413" y="80" type="curve" smooth="yes"/>
			<point x="487.233" y="80"/>
			<point x="543" y="152.896"/>
			<point x="543" y="249" type="curve" smooth="yes"/>
			<point x="543" y="352.047"/>
			<point x="490.981" y="418"/>
			<point x="409" y="418" type="curve" smooth="yes"/>
			<point x="357.589" y="418"/>
			<point x="318.065" y="391.872"/>
		</contour>
		<contour>
			<point x="161" y="172" type="curve" smooth="yes"/>
			<point x="136.512" y="172"/>
			<point x="124" y="196.263"/>
			<point x="124" y="249" type="curve" smooth="yes"/>
			<point x="124" y="301.162"/>
			<point x="135.863" y="325"/>
			<point x="159" y="325" type="curve" smooth="yes"/>
			<point x="186.832" y="325"/>
			<point x="219.03" y="300.297"/>
			<point x="241.939" y="261.208" type="curve"/>
			<point x="218.041" y="201.518"/>
			<point x="190.756" y="172"/>
		</contour>
		<contour>
			<point x="452" y="249" type="curve" smooth="yes"/>
			<point x="452" y="192.659"/>
			<point x="436.815" y="167"/>
			<point x="407" y="167" type="curve" smooth="yes"/>
			<point x="379.176" y="167"/>
			<point x="352.856" y="189.857"/>
			<point x="321.241" y="242.645" type="curve"/>
			<point x="349.082" y="304.158"/>
			<point x="375.702" y="331"/>
			<point x="407" y="331" type="curve" smooth="yes"/>
			<point x="437.847" y="331"/>
			<point x="452" y="305.753"/>
		</contour>
	</outline>
</glyph>
<glyph name="notequal" format="2">
	<advance width="575"/>
	<unicode hex="2260"/>
	<outline>
		<contour>
			<point x="301.133" y="194" type="line"/>
			<point x="367.198" y="327" type="line"/>
			<point x="499" y="327" type="line"/>
			<point x="520.491" y="327"/>
			<point x="534" y="342.198"/>
			<point x="534" y="362" type="curve"/>
			<point x="534" y="389" type="line"/>
			<point x="534" y="408.802"/>
			<point x="520.491" y="424"/>
			<point x="499" y="424" type="curve"/>
			<point x="416.131" y="424" type="line"/>
			<point x="481.956" y="556.552" type="line"/>
			<point x="493.44" y="578.236"/>
			<point x="480.744" y="600"/>
			<point x="455" y="600" type="curve"/>
			<point x="414" y="600" type="line"/>
			<point x="397.23" y="600"/>
			<point x="382.358" y="591.077"/>
			<point x="375.056" y="576.472" type="curve"/>
			<point x="298.82" y="424" type="line"/>
			<point x="76" y="424" type="line"/>
			<point x="55.858" y="424"/>
			<point x="41" y="409.142"/>
			<point x="41" y="388" type="curve"/>
			<point x="41" y="362" type="line"/>
			<point x="41" y="341.858"/>
			<point x="55.858" y="327"/>
			<point x="76" y="327" type="curve"/>
			<point x="250.772" y="327" type="line"/>
			<point x="183.838" y="194" type="line"/>
			<point x="76" y="194" type="line"/>
			<point x="55.858" y="194"/>
			<point x="41" y="179.142"/>
			<point x="41" y="158" type="curve"/>
			<point x="41" y="132" type="line"/>
			<point x="41" y="111.858"/>
			<point x="55.858" y="97"/>
			<point x="76" y="97" type="curve"/>
			<point x="135.82" y="97" type="line"/>
			<point x="69.056" y="-37" type="line"/>
			<point x="58.714" y="-58"/>
			<point x="71.256" y="-80"/>
			<point x="96" y="-80" type="curve"/>
			<point x="138" y="-80" type="line"/>
			<point x="155.028" y="-80"/>
			<point x="168.757" y="-71"/>
			<point x="175.944" y="-56" type="curve"/>
			<point x="252.198" y="97" type="line"/>
			<point x="499" y="97" type="line"/>
			<point x="520.491" y="97"/>
			<point x="534" y="112.198"/>
			<point x="534" y="132" type="curve"/>
			<point x="534" y="159" type="line"/>
			<point x="534" y="178.802"/>
			<point x="520.491" y="194"/>
			<point x="499" y="194" type="curve"/>
		</contour>
	</outline>
</glyph>
<glyph name="equivalence" format="2">
	<advance width="575"/>
	<unicode hex="2261"/>
	<outline>
		<contour>
			<point x="95" y="60" type="curve"/>
			<point x="480" y="60" type="line"/>
			<point x="501" y="60"/>
			<point x="515" y="75"/>
			<point x="515" y="95" type="curve"/>
			<point x="515" y="122" type="line"/>
			<point x="515" y="142"/>
			<point x="501" y="157"/>
			<point x="480" y="157" type="curve"/>
			<point x="95" y="157" type="line"/>
			<point x="75" y="157"/>
			<point x="60" y="142"/>
			<point x="60" y="122" type="curve"/>
			<point x="60" y="95" type="line"/>
			<point x="60" y="75"/>
			<point x="75" y="60"/>
		</contour>
		<contour>
			<point x="95" y="212" type="curve"/>
			<point x="480" y="212" type="line"/>
			<point x="501" y="212"/>
			<point x="515" y="227"/>
			<point x="515" y="247" type="curve"/>
			<point x="515" y="274" type="line"/>
			<point x="515" y="294"/>
			<point x="501" y="309"/>
			<point x="480" y="309" type="curve"/>
			<point x="95" y="309" type="line"/>
			<point x="75" y="309"/>
			<point x="60" y="294"/>
			<point x="60" y="274" type="curve"/>
			<point x="60" y="247" type="line"/>
			<point x="60" y="227"/>
			<point x="75" y="212"/>
		</contour>
		<contour>
			<point x="95" y="363" type="curve"/>
			<point x="480" y="363" type="line"/>
			<point x="501" y="363"/>
			<point x="515" y="378"/>
			<point x="515" y="398" type="curve"/>
			<point x="515" y="425" type="line"/>
			<point x="515" y="445"/>
			<point x="501" y="460"/>
			<point x="480" y="460" type="curve"/>
			<point x="95" y="460" type="line"/>
			<point x="75" y="460"/>
			<point x="60" y="445"/>
			<point x="60" y="425" type="curve"/>
			<point x="60" y="398" type="line"/>
			<point x="60" y="378"/>
			<point x="75" y="363"/>
		</contour>
	</outline>
</glyph>
<glyph name="uni256E" format="2">
	<advance width="575"/>
	<unicode hex="256E"/>
	<outline>
		<contour>
			<point x="308" y="38" type="curve" smooth="yes"/>
			<point x="308" y="-250" type="line"/>
			<point x="266" y="-250" type="line"/>
			<point x="266" y="38" type="line" smooth="yes"/>
			<point x="266" y="184.908"/>
			<point x="146.908" y="304"/>
			<point x="0" y="304" type="curve" smooth="yes"/>
			<point x="-21" y="304" type="line"/>
			<point x="-21" y="346" type="line"/>
			<point x="0" y="346" type="line" smooth="yes"/>
			<point x="170.104" y="346"/>
			<point x="308" y="208.104"/>
		</contour>
	</outline>
</glyph>
<glyph name="five.dnom" format="2">
	<advance width="250"/>
	<outline>
		<contour>
			<point x="127" y="215.999" type="curve" smooth="yes"/>
			<point x="106.6" y="216" type="line"/>
			<point x="119.581" y="302" type="line"/>
			<point x="221" y="302" type="line" smooth="yes"/>
			<point x="235.368" y="302"/>
			<point x="245" y="314.04"/>
			<point x="245" y="325" type="curve" smooth="yes"/>
			<point x="245" y="338" type="line" smooth="yes"/>
			<point x="245" y="349.556"/>
			<point x="234.556" y="360"/>
			<point x="221" y="360" type="curve" smooth="yes"/>
			<point x="84" y="360" type="line" smooth="yes"/>
			<point x="72.201" y="360"/>
			<point x="59.619" y="352.451"/>
			<point x="58.093" y="340.24" type="curve" smooth="yes"/>
			<point x="40.123" y="215.425" type="line" smooth="yes"/>
			<point x="38.721" y="205.619"/>
			<point x="42.618" y="197.826"/>
			<point x="49.515" y="190.929" type="curve"/>
			<point x="71.154" y="167.243" type="line"/>
			<point x="75.557" y="161.594"/>
			<point x="84.745" y="157"/>
			<point x="95" y="157" type="curve" smooth="yes"/>
			<point x="127" y="157" type="line" smooth="yes"/>
			<point x="170.962" y="157"/>
			<point x="192" y="138.866"/>
			<point x="192" y="101" type="curve" smooth="yes"/>
			<point x="192" y="63.114"/>
			<point x="169.943" y="44"/>
			<point x="123" y="44" type="curve" smooth="yes"/>
			<point x="105.871" y="44"/>
			<point x="91.669" y="45.775"/>
			<point x="77.092" y="49.662" type="curve" smooth="yes"/>
			<point x="64.402" y="52.829"/>
			<point x="49.499" y="45.377"/>
			<point x="46.462" y="34.747" type="curve" smooth="yes"/>
			<point x="42.462" y="20.747" type="line" smooth="yes"/>
			<point x="39.512" y="9.038"/>
			<point x="46.138" y="-4"/>
			<point x="60.09" y="-8" type="curve" smooth="yes"/>
			<point x="78.458" y="-13"/>
			<point x="101.335" y="-15"/>
			<point x="123" y="-15" type="curve" smooth="yes"/>
			<point x="210" y="-15"/>
			<point x="259" y="26.999"/>
			<point x="259" y="100.999" type="curve" smooth="yes"/>
			<point x="259" y="173.929"/>
			<point x="211.087" y="215.999"/>
		</contour>
	</outline>
</glyph>
<glyph name="four.dnom" format="2">
	<advance width="250"/>
	<outline>
		<contour>
			<point x="243" y="121" type="curve"/>
			<point x="228" y="121" type="line"/>
			<point x="228" y="196" type="line"/>
			<point x="228" y="207.556"/>
			<point x="216.556" y="219"/>
			<point x="203" y="219" type="curve"/>
			<point x="186" y="219" type="line"/>
			<point x="172.444" y="219"/>
			<point x="161" y="207.556"/>
			<point x="161" y="196" type="curve"/>
			<point x="161" y="121" type="line"/>
			<point x="100.969" y="121" type="line"/>
			<point x="205.733" y="330.528" type="line"/>
			<point x="213.413" y="344.405"/>
			<point x="203.016" y="360"/>
			<point x="186" y="360" type="curve"/>
			<point x="168" y="360" type="line"/>
			<point x="154.201" y="360"/>
			<point x="143.244" y="353.425"/>
			<point x="138.267" y="343.472" type="curve"/>
			<point x="29.257" y="124.456" type="line"/>
			<point x="28.858" y="123.714" type="line"/>
			<point x="26.384" y="117.528"/>
			<point x="25" y="111.992"/>
			<point x="25" y="105" type="curve"/>
			<point x="25" y="85" type="line"/>
			<point x="25" y="73.444"/>
			<point x="35.444" y="63"/>
			<point x="49" y="63" type="curve"/>
			<point x="161" y="63" type="line"/>
			<point x="161" y="13" type="line"/>
			<point x="161" y="2.04"/>
			<point x="170.632" y="-10"/>
			<point x="185" y="-10" type="curve"/>
			<point x="203" y="-10" type="line"/>
			<point x="217.368" y="-10"/>
			<point x="227" y="2.04"/>
			<point x="227" y="13" type="curve"/>
			<point x="227" y="63" type="line"/>
			<point x="243" y="63" type="line"/>
			<point x="256.556" y="63"/>
			<point x="267" y="73.444"/>
			<point x="267" y="85" type="curve"/>
			<point x="267" y="98" type="line"/>
			<point x="267" y="108.96"/>
			<point x="257.368" y="121"/>
		</contour>
	</outline>
</glyph>
<glyph name="three.dnom" format="2">
	<advance width="250"/>
	<outline>
		<contour>
			<point x="46.462" y="330.253" type="curve"/>
			<point x="50.462" y="316.253" type="line"/>
			<point x="53.465" y="304.146"/>
			<point x="68.018" y="298.325"/>
			<point x="79.91" y="301.299" type="curve"/>
			<point x="79.353" y="301.194" type="line"/>
			<point x="94.235" y="304.171"/>
			<point x="108.871" y="306"/>
			<point x="124" y="306" type="curve"/>
			<point x="163.654" y="306"/>
			<point x="185" y="294.26"/>
			<point x="185" y="263" type="curve"/>
			<point x="185" y="227.869"/>
			<point x="161.614" y="206"/>
			<point x="125" y="206" type="curve"/>
			<point x="100" y="206" type="line"/>
			<point x="86.444" y="206"/>
			<point x="75" y="194.556"/>
			<point x="75" y="183" type="curve"/>
			<point x="75" y="170" type="line"/>
			<point x="75" y="158.444"/>
			<point x="86.444" y="147"/>
			<point x="100" y="147" type="curve"/>
			<point x="125" y="147" type="line"/>
			<point x="163.231" y="147"/>
			<point x="190" y="125.617"/>
			<point x="190" y="92" type="curve"/>
			<point x="190" y="56.024"/>
			<point x="165.94" y="44"/>
			<point x="122" y="44" type="curve"/>
			<point x="104.82" y="44"/>
			<point x="89.62" y="45.788"/>
			<point x="75.092" y="49.662" type="curve"/>
			<point x="61.823" y="52.973"/>
			<point x="48.361" y="44.896"/>
			<point x="45.462" y="34.747" type="curve"/>
			<point x="41.462" y="20.747" type="line"/>
			<point x="38.67" y="9.674"/>
			<point x="43.223" y="-4"/>
			<point x="58.09" y="-8" type="curve"/>
			<point x="77.552" y="-13"/>
			<point x="100.335" y="-15"/>
			<point x="122" y="-15" type="curve"/>
			<point x="185.59" y="-15"/>
			<point x="257" y="12.643"/>
			<point x="257" y="92" type="curve"/>
			<point x="257" y="129.302"/>
			<point x="240.396" y="157.939"/>
			<point x="208.083" y="175.379" type="curve"/>
			<point x="238.69" y="193.443"/>
			<point x="252" y="222.024"/>
			<point x="252" y="263" type="curve"/>
			<point x="252" y="338.243"/>
			<point x="185.69" y="365"/>
			<point x="124" y="365" type="curve"/>
			<point x="103.302" y="365"/>
			<point x="81.426" y="362.812"/>
			<point x="62.788" y="357.635" type="curve"/>
			<point x="48.223" y="353.985"/>
			<point x="43.624" y="340.186"/>
		</contour>
	</outline>
</glyph>
<glyph name="two.dnom" format="2">
	<advance width="250"/>
	<outline>
		<contour>
			<point x="245" y="49" type="curve" smooth="yes"/>
			<point x="99.521" y="49" type="line"/>
			<point x="107.899" y="73.107"/>
			<point x="132.951" y="92.641"/>
			<point x="163.33" y="116.082" type="curve" smooth="yes"/>
			<point x="208.163" y="151.725"/>
			<point x="260" y="191.683"/>
			<point x="260" y="257" type="curve" smooth="yes"/>
			<point x="260" y="332.52"/>
			<point x="197.359" y="365"/>
			<point x="133" y="365" type="curve" smooth="yes"/>
			<point x="105.718" y="365"/>
			<point x="76.281" y="359.549"/>
			<point x="51.787" y="350.363" type="curve"/>
			<point x="39.632" y="345.202"/>
			<point x="33.166" y="332.271"/>
			<point x="37.97" y="321.061" type="curve"/>
			<point x="42.8" y="308.41" type="line" smooth="yes"/>
			<point x="47.242" y="296.546"/>
			<point x="61.841" y="291.004"/>
			<point x="73.954" y="294.571" type="curve"/>
			<point x="96.724" y="302.478"/>
			<point x="113.458" y="306"/>
			<point x="133" y="306" type="curve" smooth="yes"/>
			<point x="171.069" y="306"/>
			<point x="193" y="291.854"/>
			<point x="193" y="257" type="curve" smooth="yes"/>
			<point x="193" y="219.139"/>
			<point x="163.731" y="195.192"/>
			<point x="122.586" y="162.863" type="curve" smooth="yes"/>
			<point x="87.189" y="135.546"/>
			<point x="30" y="96.701"/>
			<point x="30" y="24" type="curve" smooth="yes"/>
			<point x="30" y="12" type="line" smooth="yes"/>
			<point x="30" y="0.444"/>
			<point x="41.444" y="-11"/>
			<point x="55" y="-11" type="curve" smooth="yes"/>
			<point x="245" y="-11" type="line" smooth="yes"/>
			<point x="259.368" y="-11"/>
			<point x="269" y="1.04"/>
			<point x="269" y="12" type="curve" smooth="yes"/>
			<point x="269" y="26" type="line" smooth="yes"/>
			<point x="269" y="36.96"/>
			<point x="259.368" y="49"/>
		</contour>
	</outline>
</glyph>
